<svg width="118" height="106" viewBox="0 0 118 106" fill="none" xmlns="http://www.w3.org/2000/svg">
<path fill-rule="evenodd" clip-rule="evenodd" d="M40.8451 87.5113L47.1588 79H51.1485L44.8349 87.5113H74.0301L67.7095 79H71.6992L78.0128 87.5113H89.7161C90.899 87.5113 91.858 88.4609 91.858 89.6409C91.858 90.8139 90.899 91.7705 89.7161 91.7705H29.1419C27.9589 91.7705 27 90.8139 27 89.6409C27 88.4609 27.9589 87.5113 29.1419 87.5113H40.8451Z" fill="#333333"/>
<path fill-rule="evenodd" clip-rule="evenodd" d="M108 20.3274C108 17.3879 105.599 15 102.652 15H16.3477C13.4009 15 11 17.3879 11 20.3274V73.8881C11 76.8276 13.4009 79.2295 16.3477 79.2295H102.652C105.599 79.2295 108 76.8276 108 73.8881V70.411V20.3274ZM102.652 76.0247H16.3477C15.1647 76.0247 14.2058 75.0681 14.2058 73.8881V72.0518H104.801V73.8881C104.801 75.0681 103.828 76.0247 102.652 76.0247ZM102.652 18.1979H16.3477C15.1647 18.1979 14.2058 19.1544 14.2058 20.3274V68.833H104.794V20.3274C104.794 19.1544 103.828 18.1979 102.652 18.1979Z" fill="#333333"/>
<path d="M70.3616 33.8531C70.995 32.9482 72.2421 32.7282 73.147 33.3616C74.0519 33.995 74.2719 35.2421 73.6385 36.147L59.6385 56.147C58.965 57.1091 57.6114 57.2866 56.7126 56.5306L46.7126 48.1191C45.8673 47.408 45.7585 46.1464 46.4695 45.3011C47.1805 44.4558 48.4422 44.347 49.2875 45.058L57.6149 52.0626L70.3616 33.8531Z" fill="white"/>
</svg>
