<svg width="558" height="555" viewBox="0 0 558 555" fill="none" xmlns="http://www.w3.org/2000/svg">
<path d="M503.012 470.069C590.997 382.084 568.743 217.502 457.123 105.882C345.504 -5.73754 186.914 -21.9993 98.9287 65.9859C-116.055 280.97 69.7619 536.708 182.674 426.443C427.447 187.353 415.089 558.054 503.012 470.069Z" fill="#EFEFEF"/>
<path d="M371.923 386.423L364.687 386.535C363.779 384.581 362.697 382.713 361.455 380.953L365.184 374.737C363.272 372.376 361.117 370.222 358.757 368.309L352.541 372.039C350.776 370.792 348.904 369.706 346.946 368.794L347.07 361.57C344.237 360.474 341.295 359.686 338.293 359.221L334.774 365.549C333.705 365.449 332.636 365.4 331.542 365.4C330.448 365.4 329.379 365.4 328.322 365.549L324.804 359.221C321.802 359.686 318.859 360.474 316.026 361.57L316.151 368.794C314.191 369.704 312.319 370.79 310.556 372.039L304.34 368.309C301.979 370.222 299.825 372.376 297.912 374.737L301.642 380.953C300.4 382.713 299.318 384.581 298.409 386.535L291.173 386.423C290.083 389.258 289.295 392.2 288.824 395.201L295.152 398.719C295.052 399.776 295.003 400.857 295.003 401.939C295.003 403.021 295.003 404.102 295.152 405.171L288.824 408.653C289.295 411.653 290.083 414.595 291.173 417.43L298.409 417.306C299.318 419.263 300.399 421.136 301.642 422.9L297.912 429.117C299.825 431.477 301.979 433.631 304.34 435.544L310.556 431.814L316.151 435.047L316.026 442.27C318.861 443.365 321.803 444.157 324.804 444.632L328.322 438.304C329.379 438.391 330.46 438.453 331.542 438.453C332.624 438.453 333.705 438.391 334.774 438.304L338.293 444.632C341.294 444.157 344.236 443.365 347.07 442.27L346.946 435.047C348.901 434.134 350.773 433.052 352.541 431.814L358.757 435.544C361.117 433.631 363.272 431.477 365.184 429.117L361.455 422.9C362.697 421.136 363.779 419.263 364.687 417.306L371.923 417.43C373.014 414.595 373.801 411.653 374.273 408.653L367.945 405.134C368.032 404.065 368.094 402.996 368.094 401.902C368.094 400.808 368.032 399.738 367.945 398.682L374.273 395.163C373.799 392.175 373.011 389.246 371.923 386.423Z" fill="white" stroke="#304864" stroke-linecap="round" stroke-linejoin="round"/>
<path d="M331.542 431.69C347.973 431.69 361.293 418.37 361.293 401.939C361.293 385.508 347.973 372.188 331.542 372.188C315.111 372.188 301.791 385.508 301.791 401.939C301.791 418.37 315.111 431.69 331.542 431.69Z" fill="white" stroke="#304864" stroke-linecap="round" stroke-linejoin="round"/>
<path d="M345.777 410.157V393.734L331.542 385.516L317.319 393.734V410.157L331.542 418.375L345.777 410.157Z" fill="white" stroke="#304864" stroke-linecap="round" stroke-linejoin="round"/>
<path d="M287.667 424.951L281.451 425.051C280.668 423.364 279.736 421.749 278.666 420.227L281.874 414.869C280.22 412.836 278.362 410.978 276.329 409.324L270.97 412.531C269.447 411.461 267.833 410.525 266.147 409.734L266.246 403.518C263.8 402.58 261.262 401.901 258.675 401.491L255.641 406.949C254.721 406.875 253.789 406.825 252.856 406.825C251.924 406.825 250.979 406.825 250.059 406.949L247.025 401.491C244.438 401.901 241.9 402.58 239.454 403.518L239.553 409.734C237.867 410.525 236.253 411.461 234.73 412.531L229.384 409.324C227.344 410.974 225.481 412.832 223.826 414.869L227.034 420.227C225.964 421.749 225.032 423.364 224.249 425.051L218.033 424.951C217.085 427.395 216.401 429.934 215.994 432.523L221.464 435.556C221.377 436.476 221.327 437.409 221.327 438.341C221.327 439.274 221.327 440.206 221.464 441.126L215.994 444.16C216.401 446.753 217.085 449.295 218.033 451.744L224.249 451.632C225.032 453.323 225.964 454.941 227.034 456.468L223.826 461.814C225.478 463.853 227.341 465.712 229.384 467.359L234.73 464.151C236.253 465.222 237.867 466.158 239.553 466.949L239.454 473.165C241.898 474.109 244.436 474.788 247.025 475.191L250.059 469.734C250.979 469.808 251.911 469.858 252.856 469.858C253.801 469.858 254.721 469.858 255.641 469.734L258.675 475.191C261.263 474.788 263.802 474.109 266.246 473.165L266.147 466.949C267.833 466.158 269.447 465.222 270.97 464.151L276.329 467.359C278.365 465.708 280.223 463.85 281.874 461.814L278.666 456.468C279.736 454.941 280.668 453.323 281.451 451.632L287.667 451.744C288.615 449.295 289.299 446.753 289.706 444.16L284.236 441.126C284.323 440.206 284.373 439.286 284.373 438.341C284.373 437.396 284.373 436.476 284.236 435.556L289.706 432.523C289.299 429.934 288.615 427.395 287.667 424.951Z" fill="white" stroke="#304864" stroke-linecap="round" stroke-linejoin="round"/>
<path opacity="0.3" d="M287.667 424.951L281.451 425.051C280.668 423.364 279.736 421.749 278.666 420.227L281.874 414.869C280.22 412.836 278.362 410.978 276.329 409.324L270.97 412.531C269.447 411.461 267.833 410.525 266.147 409.734L266.246 403.518C263.8 402.58 261.262 401.901 258.675 401.491L255.641 406.949C254.721 406.875 253.789 406.825 252.856 406.825C251.924 406.825 250.979 406.825 250.059 406.949L247.025 401.491C244.438 401.901 241.9 402.58 239.454 403.518L239.553 409.734C237.867 410.525 236.253 411.461 234.73 412.531L229.384 409.324C227.344 410.974 225.481 412.832 223.826 414.869L227.034 420.227C225.964 421.749 225.032 423.364 224.249 425.051L218.033 424.951C217.085 427.395 216.401 429.934 215.994 432.523L221.464 435.556C221.377 436.476 221.327 437.409 221.327 438.341C221.327 439.274 221.327 440.206 221.464 441.126L215.994 444.16C216.401 446.753 217.085 449.295 218.033 451.744L224.249 451.632C225.032 453.323 225.964 454.941 227.034 456.468L223.826 461.814C225.478 463.853 227.341 465.712 229.384 467.359L234.73 464.151C236.253 465.222 237.867 466.158 239.553 466.949L239.454 473.165C241.898 474.109 244.436 474.788 247.025 475.191L250.059 469.734C250.979 469.808 251.911 469.858 252.856 469.858C253.801 469.858 254.721 469.858 255.641 469.734L258.675 475.191C261.263 474.788 263.802 474.109 266.246 473.165L266.147 466.949C267.833 466.158 269.447 465.222 270.97 464.151L276.329 467.359C278.365 465.708 280.223 463.85 281.874 461.814L278.666 456.468C279.736 454.941 280.668 453.323 281.451 451.632L287.667 451.744C288.615 449.295 289.299 446.753 289.706 444.16L284.236 441.126C284.323 440.206 284.373 439.286 284.373 438.341C284.373 437.396 284.373 436.476 284.236 435.556L289.706 432.523C289.299 429.934 288.615 427.395 287.667 424.951Z" fill="white" stroke="#304864" stroke-linecap="round" stroke-linejoin="round"/>
<path d="M254.104 449.649C259.965 448.929 264.133 443.594 263.413 437.733C262.693 431.872 257.359 427.704 251.498 428.424C245.637 429.144 241.469 434.478 242.188 440.339C242.908 446.2 248.243 450.368 254.104 449.649Z" fill="white" stroke="#304864" stroke-linecap="round" stroke-linejoin="round"/>
<path d="M451.89 314.19L439.594 293.589" stroke="#304864" stroke-linecap="round" stroke-linejoin="round"/>
<path d="M444.107 318.553C442.102 318.663 440.174 319.357 438.56 320.55C436.947 321.744 435.718 323.384 435.026 325.268C434.334 327.152 434.21 329.198 434.668 331.152C435.126 333.106 436.147 334.883 437.604 336.263C439.061 337.643 440.891 338.566 442.867 338.918C444.843 339.269 446.879 339.034 448.723 338.241C450.567 337.448 452.138 336.133 453.242 334.456C454.346 332.78 454.935 330.817 454.935 328.81C454.898 327.426 454.589 326.062 454.024 324.797C453.46 323.532 452.652 322.39 451.646 321.438C450.641 320.485 449.457 319.74 448.163 319.245C446.87 318.75 445.491 318.515 444.107 318.553V318.553ZM444.107 332.229C443.444 332.193 442.808 331.963 442.274 331.569C441.741 331.174 441.335 330.632 441.107 330.01C440.878 329.387 440.837 328.712 440.988 328.066C441.14 327.42 441.477 326.833 441.958 326.377C442.439 325.921 443.044 325.615 443.696 325.499C444.349 325.382 445.022 325.46 445.631 325.721C446.241 325.983 446.76 326.417 447.126 326.97C447.491 327.524 447.686 328.172 447.687 328.835C447.655 329.755 447.26 330.625 446.59 331.256C445.919 331.887 445.027 332.228 444.107 332.204V332.229Z" stroke="#304864" stroke-linecap="round" stroke-linejoin="round"/>
<path d="M444.107 325.416C443.444 325.453 442.807 325.682 442.274 326.077C441.741 326.471 441.335 327.013 441.107 327.635C440.878 328.258 440.837 328.934 440.988 329.579C441.14 330.225 441.477 330.812 441.958 331.268C442.439 331.725 443.044 332.03 443.696 332.146C444.349 332.263 445.022 332.186 445.631 331.924C446.241 331.663 446.76 331.229 447.126 330.675C447.491 330.122 447.686 329.473 447.687 328.81C447.661 327.886 447.27 327.009 446.598 326.373C445.927 325.737 445.031 325.393 444.107 325.416V325.416Z" stroke="#304864" stroke-linecap="round" stroke-linejoin="round"/>
<path d="M142.392 419.63C147.676 417.404 153.893 413.774 153.582 408.043C153.271 402.311 146.321 399.414 140.901 400.695C135.48 401.975 131.253 406.053 126.926 409.559C122.6 413.065 117.304 416.285 111.808 415.365C120.097 404.947 128.356 394.52 136.586 384.085C139.931 379.87 143.238 373.53 139.483 369.676C137.32 367.475 133.652 367.438 130.867 368.768C128.083 370.098 125.981 372.498 123.955 374.823L102.708 399.402L117.254 363.994C118.895 359.978 120.573 355.813 120.35 351.487C120.126 347.16 117.44 342.635 113.201 341.777C106.214 340.372 101.564 348.627 99.3136 355.453C96.0439 365.274 97.1006 380.604 93.8309 390.426C91.22 384.943 90.3995 371.391 86.6324 366.132C82.8653 360.873 73.1928 359.792 70.6193 365.734C69.2144 368.979 70.4577 372.697 71.7009 376.016L84.5437 410.156C82.828 406.115 80.9632 401.876 77.4572 399.24C73.9512 396.605 68.2447 396.331 65.6214 399.837C61.6927 405.084 67.3495 411.884 71.7382 416.758C79.3718 425.224 80.3415 442.369 83.1762 458.631C83.1389 458.631 124.054 427.375 142.392 419.63Z" fill="#08B7F8"/>
<path d="M96.5293 402.995C81.3616 433.853 83.4129 477.454 84.8551 519.861" stroke="#304864" stroke-width="0.75" stroke-linecap="round" stroke-linejoin="round"/>
<path d="M87.0054 394.615C89.5467 403.466 90.3447 412.725 89.3551 421.88" stroke="#304864" stroke-width="0.75" stroke-linecap="round" stroke-linejoin="round"/>
<path d="M106.376 418.523C99.3467 420.683 92.9127 424.44 87.5781 429.501" stroke="#304864" stroke-width="0.75" stroke-linecap="round" stroke-linejoin="round"/>
<path d="M86.3718 553.566L85.4766 553.752L84.5691 553.566C75.8663 551.651 39.8118 541.494 67.6359 508.622H103.292C131.129 541.481 95.0746 551.626 86.3718 553.566Z" fill="#304864" stroke="#304864" stroke-linecap="round" stroke-linejoin="round"/>
<path d="M79.7077 488.904C79.6753 489.351 79.4964 489.775 79.1986 490.111C78.9008 490.446 78.5007 490.674 78.0603 490.759C77.62 490.844 77.1639 490.781 76.7627 490.581C76.3616 490.38 76.0377 490.053 75.8412 489.65C71.4401 481.146 60.4994 465.27 36.517 453.596C13.9022 442.618 32.8991 415.241 50.4912 424.342C69.4633 434.188 83.5494 461.167 79.7077 488.904Z" fill="#08B7F8"/>
<path opacity="0.2" d="M79.7077 488.904C79.6753 489.351 79.4964 489.775 79.1986 490.111C78.9008 490.446 78.5007 490.674 78.0603 490.759C77.62 490.844 77.1639 490.781 76.7627 490.581C76.3616 490.38 76.0377 490.053 75.8412 489.65C71.4401 481.146 60.4994 465.27 36.517 453.596C13.9022 442.618 32.8991 415.241 50.4912 424.342C69.4633 434.188 83.5494 461.167 79.7077 488.904Z" fill="white"/>
<path d="M49.7329 441.946C49.7329 441.946 74.971 459.177 80.4786 503.139" stroke="#304864" stroke-width="0.75" stroke-linecap="round" stroke-linejoin="round"/>
<path d="M55.6879 447.193C55.6879 447.193 48.2284 444.769 37.0391 450.55" stroke="#304864" stroke-width="0.75" stroke-linecap="round" stroke-linejoin="round"/>
<path d="M52.7788 429.166C57.5646 436.024 60.2003 444.152 60.3502 452.514" stroke="#304864" stroke-width="0.75" stroke-linecap="round" stroke-linejoin="round"/>
<path d="M67.8848 463.665C66.1692 462.176 64.093 461.163 61.8635 460.727C59.6341 460.29 57.3291 460.446 55.1787 461.179" stroke="#304864" stroke-width="0.75" stroke-linecap="round" stroke-linejoin="round"/>
<path d="M71.8252 471.461C73.6332 466.272 74.0616 460.703 73.0685 455.299" stroke="#304864" stroke-width="0.75" stroke-linecap="round" stroke-linejoin="round"/>
<path d="M90.599 496.5C90.5869 496.897 90.7055 497.288 90.9366 497.611C91.1676 497.934 91.4984 498.173 91.8782 498.29C92.2579 498.407 92.6656 498.396 93.0387 498.26C93.4117 498.123 93.7296 497.867 93.9434 497.532C98.5434 490.483 109.534 477.565 131.651 469.633C152.501 462.174 138.154 436.227 121.879 442.543C104.362 449.356 89.6293 471.735 90.599 496.5Z" fill="#08B7F8"/>
<path opacity="0.2" d="M90.599 496.5C90.5869 496.897 90.7055 497.288 90.9366 497.611C91.1676 497.934 91.4984 498.173 91.8782 498.29C92.2579 498.407 92.6656 498.396 93.0387 498.26C93.4117 498.123 93.7296 497.867 93.9434 497.532C98.5434 490.483 109.534 477.565 131.651 469.633C152.501 462.174 138.154 436.227 121.879 442.543C104.362 449.356 89.6293 471.735 90.599 496.5Z" fill="black"/>
<path d="M121.046 458.083C121.046 458.083 97.3499 470.814 88.7217 508.97" stroke="#304864" stroke-width="0.75" stroke-linecap="round" stroke-linejoin="round"/>
<path d="M115.352 462.112C115.352 462.112 122.153 460.707 131.415 466.849" stroke="#304864" stroke-width="0.75" stroke-linecap="round" stroke-linejoin="round"/>
<path d="M119.467 446.546C114.646 452.131 111.614 459.035 110.765 466.364" stroke="#304864" stroke-width="0.75" stroke-linecap="round" stroke-linejoin="round"/>
<path d="M103.206 475.452C104.85 474.303 106.769 473.607 108.768 473.434C110.767 473.262 112.776 473.619 114.594 474.47" stroke="#304864" stroke-width="0.75" stroke-linecap="round" stroke-linejoin="round"/>
<path d="M99.0652 481.917C97.8967 477.199 97.9782 472.259 99.3014 467.582" stroke="#304864" stroke-width="0.75" stroke-linecap="round" stroke-linejoin="round"/>
<path d="M65.8328 508.622H103.292L105.567 498.005H63.5576L65.8328 508.622Z" fill="#304864" stroke="#304864" stroke-linecap="round" stroke-linejoin="round"/>
<path d="M174.971 203.025C181.981 185.551 173.499 165.703 156.025 158.693C138.551 151.683 118.703 160.165 111.693 177.639C104.683 195.113 113.165 214.961 130.639 221.971C148.113 228.981 167.961 220.499 174.971 203.025Z" fill="white" stroke="#304864" stroke-linecap="round" stroke-linejoin="round"/>
<path d="M271.578 217.8L274.662 222.122L270.34 225.206" stroke="#304864" stroke-linecap="round" stroke-linejoin="round"/>
<path d="M182.5 209L273.668 222.077" stroke="#304864" stroke-linecap="round" stroke-linejoin="round"/>
<path d="M398.249 80L402.003 83.7546L398.249 87.5093" stroke="#304864" stroke-linecap="round" stroke-linejoin="round"/>
<path d="M368 83.7544L401.142 83.8853" stroke="#304864" stroke-linecap="round" stroke-linejoin="round"/>
<path d="M316.757 140.935L320.321 137L324.256 140.564" stroke="#304864" stroke-linecap="round" stroke-linejoin="round"/>
<path d="M319.703 171.252C319.563 170.74 320.125 138.588 320.125 138.588" stroke="#304864" stroke-linecap="round" stroke-linejoin="round"/>
<path d="M138.068 58.0251C145.078 40.5515 136.595 20.7034 119.122 13.6932C101.648 6.68296 81.8 15.1653 74.7898 32.6389C67.7796 50.1126 76.2619 69.9607 93.7356 76.9709C111.209 83.9811 131.057 75.4988 138.068 58.0251Z" fill="white" stroke="#304864" stroke-linecap="round" stroke-linejoin="round"/>
<path d="M209.28 52.894L213.022 56.6487L216.789 52.894" stroke="#304864" stroke-linecap="round" stroke-linejoin="round"/>
<path d="M140.516 44.1792H213.022V56.6242" stroke="#304864" stroke-linecap="round" stroke-linejoin="round"/>
<path d="M187.61 130.766L169.025 156.662" stroke="#304864" stroke-linecap="round" stroke-linejoin="round"/>
<path d="M167.949 151.647L168.725 156.909L173.969 156.135" stroke="#304864" stroke-linecap="round" stroke-linejoin="round"/>
<path d="M495.416 59.521V60.9259V107.647L451.243 128.547V77.7347L495.416 59.521Z" fill="#08B7F8" stroke="#304864" stroke-linecap="round" stroke-linejoin="round"/>
<path d="M407.07 59.521V60.9259V107.647L451.243 128.547V77.7347L407.07 59.521Z" fill="#304864" stroke="#304864" stroke-linecap="round" stroke-linejoin="round"/>
<path d="M495.416 59.5212L451.243 77.7349L407.07 59.5212L451.243 39.5918L495.416 59.5212Z" fill="white" stroke="#304864" stroke-linecap="round" stroke-linejoin="round"/>
<path d="M474.566 67.3037V100.088L483.418 91.224L492.233 100.039V67.1421L474.566 67.3037Z" fill="white" stroke="#304864" stroke-linecap="round" stroke-linejoin="round"/>
<path d="M483.393 47.0014L487.794 44.1792L490.194 48.8165L495.403 48.5803L495.154 53.7896L499.792 56.1891L496.982 60.5777L499.792 64.9664L495.154 67.3659L495.403 72.5752L490.194 72.3389L487.794 76.9763L483.393 74.1541L479.004 76.9763L476.605 72.3389L471.396 72.5752L471.644 67.3659L467.007 64.9664L469.817 60.5777L467.007 56.1891L471.644 53.7896L471.396 48.5803L476.605 48.8165L479.004 44.1792L483.393 47.0014Z" fill="#08B7F8"/>
<path d="M483.393 47.0014L487.794 44.1792L490.194 48.8165L495.403 48.5803L495.154 53.7896L499.792 56.1891L496.982 60.5777L499.792 64.9664L495.154 67.3659L495.403 72.5752L490.194 72.3389L487.794 76.9763L483.393 74.1541L479.004 76.9763L476.605 72.3389L471.396 72.5752L471.644 67.3659L467.007 64.9664L469.817 60.5777L467.007 56.1891L471.644 53.7896L471.396 48.5803L476.605 48.8165L479.004 44.1792L483.393 47.0014Z" fill="white" stroke="#304864" stroke-linecap="round" stroke-linejoin="round"/>
<path d="M483.393 47.0014L487.794 44.1792L490.194 48.8165L495.403 48.5803L495.154 53.7896L499.792 56.1891L496.982 60.5777L499.792 64.9664L495.154 67.3659L495.403 72.5752L490.194 72.3389L487.794 76.9763L483.393 74.1541L479.004 76.9763L476.605 72.3389L471.396 72.5752L471.644 67.3659L467.007 64.9664L469.817 60.5777L467.007 56.1891L471.644 53.7896L471.396 48.5803L476.605 48.8165L479.004 44.1792L483.393 47.0014Z" stroke="#304864" stroke-linecap="round" stroke-linejoin="round"/>
<path d="M361.479 108.919V63.1303L321.832 40.2295L282.172 63.1303V108.919L321.832 131.82L361.479 108.919Z" fill="white" stroke="#304864" stroke-linecap="round" stroke-linejoin="round"/>
<path d="M357.923 243.809V198.019L318.264 175.119L278.604 198.019V243.809L318.264 266.709L357.923 243.809Z" fill="white" stroke="#304864" stroke-linecap="round" stroke-linejoin="round"/>
<path d="M248.492 107.125V86.2758C248.482 83.069 247.627 79.9216 246.014 77.1499C244.402 74.3782 242.087 72.08 239.305 70.4864L221.253 60.0431C218.475 58.4426 215.326 57.6001 212.121 57.6001C208.915 57.6001 205.766 58.4426 202.989 60.0431L184.937 70.4864C182.164 72.0919 179.861 74.3978 178.26 77.1733C176.658 79.9487 175.814 83.0963 175.812 86.3007V107.15C175.811 110.355 176.654 113.503 178.256 116.279C179.858 119.055 182.162 121.361 184.937 122.964L202.989 133.383C205.764 134.989 208.914 135.835 212.121 135.835C215.327 135.835 218.477 134.989 221.253 133.383L239.305 122.964C242.097 121.369 244.418 119.064 246.032 116.282C247.646 113.5 248.494 110.341 248.492 107.125V107.125Z" fill="white" stroke="#304864" stroke-linecap="round" stroke-linejoin="round"/>
<path d="M477.45 120.217L477.537 123.884C477.537 124.232 477.898 123.884 478.184 123.735C478.868 123.179 479.687 122.814 480.559 122.678C480.981 122.604 481.23 122.554 480.919 122.256L478.234 119.869C478.168 119.803 478.084 119.76 477.993 119.743C477.902 119.726 477.808 119.737 477.723 119.775C477.638 119.813 477.567 119.875 477.519 119.954C477.47 120.033 477.446 120.124 477.45 120.217V120.217Z" fill="white" stroke="#304864" stroke-linecap="round" stroke-linejoin="round"/>
<path d="M489.597 126.62C487.471 124.046 485.059 122.43 482.709 122.89C480.359 123.35 479.278 121.348 477.736 124.133C476.194 126.918 474.628 130.66 472.763 134.079C470.898 137.498 476.319 138.941 477.736 141.303C478.905 143.192 482.237 146.661 483.766 149.334C486.263 147.168 489.461 145.98 492.767 145.99C493.463 143.503 495.104 137.287 495.03 135.173C494.918 132.451 491.735 129.206 489.597 126.62ZM484.251 135.944L483.99 136.031C483.411 136.187 482.794 136.107 482.274 135.809C481.755 135.511 481.374 135.018 481.217 134.44L478.097 123.947C478.01 121.933 480.384 122.853 480.384 122.853L485.469 132.898C485.506 132.961 485.535 133.028 485.556 133.097C485.65 133.356 485.696 133.63 485.693 133.905C485.681 134.35 485.537 134.78 485.281 135.143C485.024 135.506 484.666 135.785 484.251 135.944V135.944Z" fill="white" stroke="#304864" stroke-linecap="round" stroke-linejoin="round"/>
<path d="M483.99 136.031C483.411 136.187 482.794 136.107 482.274 135.808C481.755 135.51 481.374 135.018 481.217 134.439L478.793 125.19C478.706 123.163 481.08 124.095 481.08 124.095L485.469 132.798C485.506 132.861 485.535 132.928 485.556 132.997C485.65 133.256 485.696 133.53 485.693 133.805C485.693 134.26 485.555 134.705 485.298 135.08C485.04 135.455 484.675 135.743 484.251 135.906L483.99 136.031Z" fill="#08B7F8" stroke="#304864" stroke-linecap="round" stroke-linejoin="round"/>
<path d="M519.522 183.709C519.709 188.421 516.687 205.068 516.687 212.304C516.687 221.33 511.814 237.729 510.471 239.855C510.334 240.079 508.842 234.036 508.619 233.887L488.279 219.826L497.193 192.847C497.731 191.22 497.937 189.502 497.801 187.794C497.664 186.086 497.187 184.422 496.397 182.901C492.892 176.163 486.762 163.171 484.45 151.049C484.297 150.411 484.04 149.802 483.691 149.246C486.189 147.08 489.387 145.892 492.693 145.902C492.568 146.623 519.36 178.985 519.522 183.709Z" fill="#08B7F8"/>
<path opacity="0.2" d="M495.105 185.823C494.955 193.395 492.146 200.63 489.361 207.68C491.23 207.295 493.163 207.356 495.004 207.86C496.845 208.363 498.54 209.294 499.953 210.576C500.124 208.206 500.865 205.912 502.114 203.89C503.363 201.868 505.083 200.178 507.127 198.964L497.38 202.47C500.451 201.364 500.749 188.36 500.687 185.749C500.554 179.99 499.215 174.323 496.758 169.114C495.963 167.411 494.446 163.233 492.519 162.637C489.547 161.704 490.032 163.668 490.318 165.521C491.574 172.57 495.241 178.277 495.105 185.823Z" fill="black"/>
<path d="M519.522 183.709C519.709 188.421 516.687 205.068 516.687 212.304C516.687 221.33 511.814 237.729 510.471 239.855C510.334 240.079 508.842 234.036 508.619 233.887L488.279 219.826L497.193 192.847C497.731 191.22 497.937 189.502 497.801 187.794C497.664 186.086 497.187 184.422 496.397 182.901C492.892 176.163 486.762 163.171 484.45 151.049C484.297 150.411 484.04 149.802 483.691 149.246C486.189 147.08 489.387 145.892 492.693 145.902C492.568 146.623 519.36 178.985 519.522 183.709Z" stroke="#304864" stroke-linecap="round" stroke-linejoin="round"/>
<path d="M485.693 133.893C485.694 134.348 485.556 134.792 485.298 135.167C485.041 135.542 484.676 135.831 484.251 135.994L483.99 136.081C483.411 136.237 482.795 136.157 482.275 135.859C481.755 135.56 481.375 135.068 481.218 134.49L478.035 123.947C478.321 121.56 480.521 122.704 480.521 122.704L485.494 132.836C485.531 132.899 485.56 132.966 485.581 133.035C485.673 133.311 485.711 133.602 485.693 133.893Z" fill="white" stroke="#304864" stroke-linecap="round" stroke-linejoin="round"/>
<path d="M474.504 150.751C482.535 155.724 490.927 173.664 489.721 180.589C488.515 187.514 479.987 188.534 479.987 188.534C479.987 188.534 479.34 197.51 490.43 211.26C495.403 217.477 468.698 228.405 461.201 225.719C453.704 223.034 457.645 214.679 457.111 210.564C456.464 205.591 456.104 202.11 455.867 199.847C455.78 198.9 455.44 197.994 454.882 197.224C454.325 196.454 453.57 195.849 452.697 195.471C449.85 194.228 448.793 191.567 447.102 191.144C443.659 190.274 443.311 187.066 442.714 183.685C442.179 180.564 441.669 176.399 441.669 176.399C440.339 174.771 438.3 170.73 439.432 168.517C440.463 166.491 442.888 168.157 444.517 166.702C447.152 164.327 447.513 159.242 450.335 154.618C453.157 149.993 459.92 148.563 459.92 148.563C459.92 148.563 466.485 145.815 474.504 150.751Z" fill="white" stroke="#304864" stroke-linecap="round" stroke-linejoin="round"/>
<path d="M445.461 179.147C446.604 179.611 447.839 179.807 449.07 179.719C450.301 179.63 451.495 179.26 452.56 178.637" stroke="#304864" stroke-linecap="round" stroke-linejoin="round"/>
<path d="M452.038 164.079C452.809 164.228 453.107 165.322 452.809 166.441C452.51 167.56 451.702 168.393 450.932 168.231C450.161 168.07 449.85 166.988 450.161 165.869C450.472 164.75 451.267 163.917 452.038 164.079Z" fill="#304864"/>
<path d="M451.056 159.678C456.738 158.77 456.738 162.898 456.738 162.898" stroke="#304864" stroke-linecap="round" stroke-linejoin="round"/>
<path d="M450.049 209.097C450.049 209.097 470.128 195.235 480.932 200.009C491.735 204.783 493.476 210.9 493.476 210.9C493.476 210.9 459.262 215.152 450.049 209.097Z" fill="#304864" stroke="#304864" stroke-linecap="round" stroke-linejoin="round"/>
<path d="M512.547 323.179C493.899 328.313 460.331 333.423 429.796 323.75C429.908 314.774 432.805 292.669 433.19 288.081C437.641 267.456 426.875 231.588 429.548 221.169C430.703 219.88 431.949 218.675 433.277 217.564L439.606 214.63C441.172 213.884 442.788 213.15 444.355 212.417C454.844 207.481 466.333 205.038 477.923 205.281C482.374 205.38 495.055 205.678 500.898 211.497C509.514 220.001 512.833 231.526 510.571 239.943C510.235 241.186 505.399 254.377 505.026 256.465C500.911 278.968 503.894 289.698 509.937 311.753C510.048 312.163 510.16 312.549 510.272 312.996C511.229 316.343 511.989 319.743 512.547 323.179V323.179Z" fill="#08B7F8"/>
<path opacity="0.2" d="M484.45 260.033C486.766 258.691 488.764 256.863 490.306 254.675C490.306 260.232 486.016 265.205 480.745 268.04C475.474 270.875 469.307 271.981 463.339 273.013L445.548 276.133L451.516 278.322L446.841 283.891C459.92 279.416 474.529 274.94 487.471 279.714C479.116 279.801 486.228 293.39 507.86 312.25C486.974 301.682 451.441 302.814 435.627 315.98C437.791 304.144 435.95 296.796 435.627 288.454C435.142 276.096 435.963 263.838 441.558 249.913C446.307 232.905 441.558 249.913 450.894 258.131C460.89 266.921 472.888 267.219 484.45 260.033Z" fill="black"/>
<path d="M512.547 323.179C493.899 328.313 460.331 333.423 429.796 323.75C429.908 314.774 432.805 292.669 433.19 288.081C437.641 267.456 426.875 231.588 429.548 221.169C430.703 219.88 431.949 218.675 433.277 217.564L439.606 214.63C441.172 213.884 442.788 213.15 444.355 212.417C454.844 207.481 466.333 205.038 477.923 205.281C482.374 205.38 495.055 205.678 500.898 211.497C509.514 220.001 512.833 231.526 510.571 239.943C510.235 241.186 505.399 254.377 505.026 256.465C500.911 278.968 503.894 289.698 509.937 311.753C510.048 312.163 510.16 312.549 510.272 312.996C511.229 316.343 511.989 319.743 512.547 323.179V323.179Z" stroke="#304864" stroke-linecap="round" stroke-linejoin="round"/>
<path d="M352.267 272.255C352.267 272.255 348.127 270.017 349.395 272.454C350.663 274.89 354.84 276.631 356.855 277.427C358.869 278.222 362.462 276.469 362.462 276.469L352.267 272.255Z" fill="white" stroke="#304864" stroke-linecap="round" stroke-linejoin="round"/>
<path d="M391.33 267.232C391.33 267.232 386.432 264.484 383.125 262.458C379.817 260.431 373.029 259.735 370.356 260.63C367.683 261.525 364.55 263.266 362.375 263.863C360.199 264.459 357.601 263.614 357.675 265.106C357.75 266.598 358.446 266.585 360.485 266.871C362.524 267.157 366.639 267.145 366.639 267.145C366.639 267.145 362.263 270.042 361.007 271.173C359.751 272.304 356.258 271.683 356.258 271.683C356.258 271.683 349.843 268.96 350.439 271.136C351.036 273.311 355.412 275.052 357.837 275.96C360.261 276.867 361.305 277.924 363.866 276.643C366.428 275.363 376.921 269.408 376.921 269.408L384.878 274.866L391.33 267.232Z" fill="white" stroke="#304864" stroke-linecap="round" stroke-linejoin="round"/>
<path d="M439.618 214.63C438.506 214.655 437.414 214.931 436.423 215.438C435.296 216.016 434.244 216.73 433.29 217.564C431.962 218.675 430.715 219.88 429.56 221.169C428.37 222.455 427.308 223.854 426.39 225.347C423.418 230.32 420.621 243.747 419.266 252.574C418.023 260.842 415.039 274.779 414.666 276.544C414.542 275.91 413.075 271.795 387.178 263.738C386.941 264.41 383.808 265.342 381.906 269.743C380.315 273.473 382.764 274.642 382.764 274.642C391.666 284.215 412.478 298.264 420.882 298.264C430.418 298.264 433.203 288.131 433.203 288.131C436.311 282.077 446.879 255.259 447.898 252.997C451.678 244.717 447.015 214.63 439.618 214.63Z" fill="#08B7F8"/>
<path opacity="0.2" d="M446.891 255.333C448.445 254.028 446.319 254.177 444.566 253.158C443.652 252.718 442.633 252.546 441.626 252.66C440.619 252.775 439.664 253.171 438.872 253.804C437.306 255.094 436.002 256.673 435.03 258.454C427.981 269.643 422.436 275.698 415.387 286.85L411.433 279.353C411.89 280.736 411.953 282.218 411.614 283.634C411.276 285.051 410.551 286.345 409.519 287.372C408.433 288.341 407.02 288.861 405.566 288.826C404.111 288.792 402.724 288.205 401.686 287.186C403.34 290.555 406.746 292.631 409.991 294.521C414.082 296.908 418.694 299.394 423.319 298.325C426.232 297.508 428.758 295.679 430.443 293.166C432.097 290.667 433.445 287.979 434.458 285.159C438.524 275.213 441.085 270.24 445.138 260.294L446.891 255.333Z" fill="black"/>
<path d="M439.618 214.63C438.506 214.655 437.414 214.931 436.423 215.438C435.296 216.016 434.244 216.73 433.29 217.564C431.962 218.675 430.715 219.88 429.56 221.169C428.37 222.455 427.308 223.854 426.39 225.347C423.418 230.32 420.621 243.747 419.266 252.574C418.023 260.842 415.039 274.779 414.666 276.544C414.542 275.91 413.075 271.795 387.178 263.738C386.941 264.41 383.808 265.342 381.906 269.743C380.315 273.473 382.764 274.642 382.764 274.642C391.666 284.215 412.478 298.264 420.882 298.264C430.418 298.264 433.203 288.131 433.203 288.131C436.311 282.077 446.879 255.259 447.898 252.997C451.678 244.717 447.015 214.63 439.618 214.63Z" stroke="#304864" stroke-linecap="round" stroke-linejoin="round"/>
<path d="M471.334 171.65C471.831 170.407 473.472 168.741 476.692 168.704C477.935 168.704 479.253 170.345 479.178 172.21C479.067 174.584 478.035 177.916 475.2 179.184C473.82 179.806 471.918 181.671 470.227 180.676" stroke="#304864" stroke-linecap="round" stroke-linejoin="round"/>
<path d="M423.916 231.314C423.211 237.053 423.328 242.864 424.264 248.57" stroke="#304864" stroke-linecap="round" stroke-linejoin="round"/>
<path d="M414.641 275.002V281.081" stroke="#304864" stroke-linecap="round" stroke-linejoin="round"/>
<path d="M493.986 253.979C490.99 258.961 487.154 263.386 482.647 267.058C475.275 272.764 464.322 275.624 455.669 271.633" stroke="#304864" stroke-linecap="round" stroke-linejoin="round"/>
<path d="M498.983 245.462C497.989 247.24 496.982 249.03 495.938 250.795" stroke="#304864" stroke-linecap="round" stroke-linejoin="round"/>
<path d="M446.257 285.085C457.871 279.482 470.667 276.77 483.555 277.178C484.641 277.15 485.723 277.336 486.737 277.725C487.217 277.904 487.63 278.227 487.92 278.65C488.209 279.073 488.36 279.575 488.354 280.087L471.644 281.33" stroke="#304864" stroke-linecap="round" stroke-linejoin="round"/>
<path d="M453.07 136.242C449.626 137.833 447.612 141.625 447.065 145.392C446.816 147.133 446.829 148.898 446.518 150.627C446.298 152.39 445.456 154.017 444.143 155.214C443.479 155.791 442.642 156.13 441.764 156.177C440.886 156.224 440.017 155.977 439.295 155.475C439.454 156.366 439.931 157.169 440.638 157.734C441.344 158.299 442.232 158.587 443.136 158.546C444.926 158.421 446.646 157.805 448.109 156.768C449.584 155.726 451.241 154.971 452.995 154.543C454.239 154.344 455.482 154.543 456.725 154.282C458.114 153.955 459.392 153.268 460.431 152.291C461.47 151.313 462.233 150.078 462.643 148.712C464.819 142.483 461.437 132.376 453.07 136.242Z" fill="#304864" stroke="#304864" stroke-linecap="round" stroke-linejoin="round"/>
<path d="M457.26 160.374C459.883 161.307 463.476 161.518 464.272 164.191C464.831 166.106 463.451 168.319 464.384 170.084C465.179 171.564 466.646 179.011 468.399 178.638C469.282 178.464 470.438 170.855 471.209 170.507C473.509 169.487 476.953 168.928 477.91 171.253C478.955 173.739 475.635 175.766 474.33 178.153C472.49 181.534 471.035 195.148 474.715 196.279C478.395 197.411 484.114 198.032 487.62 196.416C491.698 194.526 496.074 195.173 499.431 192.152C504.068 188.012 496.77 149.595 492.755 145.952C488.739 142.31 472.738 138.108 467.33 137.747C456.651 137.051 442.614 155.227 457.26 160.374Z" fill="#304864" stroke="#304864" stroke-linecap="round" stroke-linejoin="round"/>
<path d="M456.899 188.956C460.362 188.207 463.519 186.436 465.963 183.871" stroke="#304864" stroke-linecap="round" stroke-linejoin="round"/>
<path d="M445.026 162.487L445.698 172.433" stroke="#304864" stroke-linecap="round" stroke-linejoin="round"/>
<path d="M445.698 168.704L471.097 171.103" stroke="#304864" stroke-linecap="round" stroke-linejoin="round"/>
<path d="M492.929 207.244C496.17 202.964 500.976 200.143 506.294 199.399" stroke="#304864" stroke-linecap="round" stroke-linejoin="round"/>
<path d="M477.973 424.603C476.282 433.169 477.973 443.699 477.65 452.377C477.65 463.305 480.957 527.644 480.957 528.85C480.957 530.056 476.493 535.712 477.973 538.982C479.452 542.252 482.374 544.204 484.525 547.001C486.166 549.115 489.995 550.632 493.961 551.974C497.927 553.317 504.889 554.038 507.388 552.832C509.887 551.626 509.353 548.767 507.388 546.74C505.925 545.536 504.591 544.182 503.41 542.7C501.214 537.759 499.547 532.6 498.437 527.308C497.442 523.268 500.923 501.2 502.888 490.259C504.852 479.318 508.134 462.696 509.104 447.305C509.104 434.636 509.104 431.217 508.147 423.993C508.134 423.931 486.924 418.473 477.973 424.603Z" fill="white" stroke="#304864" stroke-linecap="round" stroke-linejoin="round"/>
<path d="M499.692 532.679C482.834 511.221 474.951 535.452 476.294 538.013C478.022 541.743 481.914 542.315 483.144 545.932C484.375 549.55 489.796 552.074 493.613 553.168C498.2 554.486 506.368 553.902 509.216 552.522C512.063 551.142 511.341 549.227 509.091 546.902C499.692 537.342 500.998 534.345 499.692 532.679Z" fill="#08B7F8" stroke="#304864" stroke-linecap="round" stroke-linejoin="round"/>
<path d="M508.171 552.671C508.502 552.487 508.811 552.266 509.091 552.012C498.461 554.822 494.272 539.977 486.526 535.551C481.106 533.214 478.184 535.166 476.294 536.882C478.184 539.766 487.272 550.62 491.561 552.012C495.851 553.405 505.473 553.976 508.171 552.671Z" fill="#304864" stroke="#304864" stroke-linecap="round" stroke-linejoin="round"/>
<path d="M487.521 537.341C488.304 538.1 484.562 545.547 483.667 550.085C482.896 554.051 477.339 552.571 477.202 551.328C476.356 543.67 476.294 536.707 476.294 536.707C477.906 535.392 479.953 534.727 482.031 534.844C484.108 534.962 486.067 535.852 487.521 537.341V537.341Z" fill="#08B7F8" stroke="#304864" stroke-linecap="round" stroke-linejoin="round"/>
<path d="M471.122 424.603C472.801 433.169 471.122 443.7 471.433 452.378C471.433 463.306 468.151 527.645 468.151 528.85C468.151 530.056 472.589 535.713 471.122 538.983C469.655 542.253 466.733 544.205 464.595 547.002C462.966 549.116 459.15 550.632 455.196 551.975C451.242 553.318 444.33 554.039 441.843 552.833C439.357 551.627 439.892 548.767 441.843 546.741C443.302 545.54 444.628 544.185 445.797 542.7C447.988 537.758 449.655 532.599 450.77 527.309C451.752 523.268 448.284 501.2 446.332 490.26C444.38 479.319 441.11 462.697 440.115 447.305C440.115 434.637 437.194 389.183 438.139 381.947C438.176 381.885 462.208 418.474 471.122 424.603Z" fill="white" stroke="#304864" stroke-linecap="round" stroke-linejoin="round"/>
<path d="M449.502 532.679C466.286 511.221 474.118 535.452 472.776 538.013C471.072 541.743 467.194 542.315 465.963 545.932C464.732 549.55 459.349 552.074 455.557 553.168C450.981 554.486 442.863 553.902 440.028 552.522C437.194 551.142 437.915 549.227 440.153 546.902C449.502 537.342 448.209 534.345 449.502 532.679Z" fill="#08B7F8" stroke="#304864" stroke-linecap="round" stroke-linejoin="round"/>
<path d="M440.799 553.007C440.518 552.817 440.263 552.591 440.041 552.335C448.818 555.145 457.969 539.977 464.359 535.551C468.835 533.214 471.247 535.166 472.801 536.882C471.247 539.766 463.75 550.62 460.206 552.012C456.663 553.405 443.025 554.3 440.799 553.007Z" fill="#304864" stroke="#304864" stroke-linecap="round" stroke-linejoin="round"/>
<path d="M463.576 537.341C462.929 538.1 466.062 545.547 466.759 550.085C467.393 554.051 471.98 552.571 472.092 551.328C472.801 543.67 472.838 536.707 472.838 536.707C472.227 536.065 471.482 535.565 470.656 535.244C469.829 534.923 468.942 534.788 468.058 534.848C467.174 534.909 466.313 535.163 465.539 535.594C464.764 536.025 464.094 536.622 463.576 537.341V537.341Z" fill="#08B7F8" stroke="#304864" stroke-linecap="round" stroke-linejoin="round"/>
<path d="M519.074 364.529C514.188 389.842 510.819 399.216 512.398 416.746C512.638 417.962 512.526 419.221 512.075 420.376C511.385 421.458 510.378 422.301 509.191 422.788C498.758 428.245 487.453 431.838 475.784 433.405C467.367 434.524 453.207 430.521 446.941 424.864C440.675 419.207 439.593 400.223 438.748 392.117C437.504 396.978 438.4 407.036 439.146 418.586C434.11 407.769 433.998 397.674 433.352 385.776C432.233 365.076 429.001 344.363 429.995 323.613C430.816 306.767 497.342 296.945 511.068 316.005C517.21 324.558 521.598 351.462 519.074 364.529Z" fill="#304864" stroke="#304864" stroke-linecap="round" stroke-linejoin="round"/>
<path d="M482.337 374.189C479.676 387.927 473.236 401.043 471.147 414.98" stroke="#5C5C5C" stroke-linecap="round" stroke-linejoin="round"/>
<path d="M483.468 365.2C483.406 366.568 483.294 367.923 483.132 369.278" stroke="#5C5C5C" stroke-linecap="round" stroke-linejoin="round"/>
<path d="M480.36 412.68C478.843 406.054 478.918 396.593 478.035 389.842" stroke="#5C5C5C" stroke-linecap="round" stroke-linejoin="round"/>
<path d="M1.12207 553.952H555.962" stroke="#304864" stroke-linecap="round" stroke-linejoin="round"/>
</svg>
