<?xml version="1.0" encoding="UTF-8" standalone="no"?>
<!DOCTYPE svg PUBLIC "-//W3C//DTD SVG 1.1//EN" "http://www.w3.org/Graphics/SVG/1.1/DTD/svg11.dtd">
<svg width="100%" height="100%" viewBox="0 0 1106 744" version="1.1" xmlns="http://www.w3.org/2000/svg" xmlns:xlink="http://www.w3.org/1999/xlink" xml:space="preserve" xmlns:serif="http://www.serif.com/" style="fill-rule:evenodd;clip-rule:evenodd;stroke-linecap:round;stroke-linejoin:round;stroke-miterlimit:1.5;">
    <g transform="matrix(1,0,0,1,-1204.67,-1595.37)">
        <g transform="matrix(1,0,0,1,690.521,-0.821126)">
            <g transform="matrix(1,0,0,1,-62.485,-54.1704)">
                <g transform="matrix(1,0,0,1,508.067,1580.13)">
                    <g transform="matrix(-1.90265,0,0,1.42315,1107.15,161.997)">
                        <path d="M514.036,457.833C514.036,457.833 589.114,318.817 508.643,202.37C443.736,108.446 356.325,219.076 290.677,184.527C216.947,145.725 176.713,-20.542 58.928,81.062C-71.578,193.639 -10.321,457.833 -10.321,457.833L514.036,457.833Z" style="fill:rgb(247,247,247);fill-rule:nonzero;"/>
                    </g>
                    <g transform="matrix(0.543737,0,-0.872387,0.985961,577.993,16.5699)">
                        <path d="M166.123,319.836L166.123,291.479L708.521,291.479L708.521,584.147L166.123,584.147L166.123,527.808" style="fill:rgb(245,196,65);stroke:rgb(17,17,17);stroke-width:1.36px;"/>
                    </g>
                    <g transform="matrix(1,0,0,1,-1107,0)">
                        <path d="M1314.87,536.968L1306.47,546.462L1589.52,546.462L1763.29,350.749L1741.68,350.749L1314.87,536.968Z" style="fill:rgb(212,155,11);fill-opacity:0.5;"/>
                    </g>
                    <g transform="matrix(0.529364,0,-0.551563,0.623369,424.981,150.216)">
                        <rect x="166.123" y="291.479" width="542.398" height="292.668" style="fill:rgb(215,225,236);stroke:rgb(17,17,17);stroke-width:2.27px;"/>
                    </g>
                    <g transform="matrix(0.0687692,0,-0.551563,0.623369,722.536,150.216)">
                        <rect x="166.123" y="291.479" width="542.398" height="292.668" style="fill:none;stroke:rgb(17,17,17);stroke-width:1.79px;"/>
                    </g>
                    <g transform="matrix(0.0576573,0,-0.551563,0.623369,662.007,150.216)">
                        <rect x="166.123" y="291.479" width="542.398" height="292.668" style="fill:none;stroke:rgb(17,17,17);stroke-width:1.78px;"/>
                    </g>
                    <g transform="matrix(0.0576573,0,-0.551563,0.623369,598.477,150.216)">
                        <rect x="166.123" y="291.479" width="542.398" height="292.668" style="fill:none;stroke:rgb(17,17,17);stroke-width:1.78px;"/>
                    </g>
                    <g transform="matrix(0.0576573,0,-0.551563,0.623369,534.946,150.216)">
                        <rect x="166.123" y="291.479" width="542.398" height="292.668" style="fill:none;stroke:rgb(17,17,17);stroke-width:1.78px;"/>
                    </g>
                    <rect x="190.726" y="514.356" width="287.126" height="22.612" style="fill:rgb(32,32,32);stroke:rgb(17,17,17);stroke-width:1px;"/>
                    <path d="M639.277,331.916L639.277,354.528L477.852,536.968L477.852,514.356L639.277,331.916Z" style="fill:rgb(17,17,17);stroke:rgb(17,17,17);stroke-width:1px;"/>
                    <g transform="matrix(0.544274,0,0.872387,0.985961,69.0473,16.5699)">
                        <path d="M166.123,291.646L166.123,291.479L708.521,291.479L708.521,413.847" style="fill:none;stroke:rgb(17,17,17);stroke-width:0.82px;"/>
                    </g>
                    <g transform="matrix(0.544274,0,0.872387,0.985961,69.0473,31.2304)">
                        <path d="M708.521,291.479L708.521,398.977L732.354,398.94L732.354,276.61L-205.543,569.278L-229.562,584.11L708.521,291.479Z" style="fill:rgb(239,239,239);stroke:rgb(17,17,17);stroke-width:0.82px;"/>
                    </g>
                    <g transform="matrix(0.999019,0,0,1,0.155688,0)">
                        <rect x="158.718" y="592.516" width="295.211" height="14.66" style="fill:rgb(207,207,207);stroke:rgb(17,17,17);stroke-width:1px;"/>
                    </g>
                    <g transform="matrix(1.02473,0,0,1.057,-5.1703,-34.6114)">
                        <rect x="209.039" y="607.176" width="238.697" height="195.256" style="fill:white;stroke:rgb(17,17,17);stroke-width:0.96px;"/>
                    </g>
                    <g transform="matrix(1.02473,0,0,0.190248,-5.1703,491.662)">
                        <rect x="209.039" y="607.176" width="238.697" height="195.256" style="fill:rgb(55,83,115);fill-opacity:0.08;"/>
                    </g>
                    <g transform="matrix(0.272736,0,0,0.727207,208.253,198.223)">
                        <rect x="209.039" y="607.176" width="238.697" height="195.256" style="fill:rgb(239,239,239);stroke:rgb(17,17,17);stroke-width:1.82px;"/>
                    </g>
                    <g transform="matrix(0.272736,0,0,0.0734192,208.253,595.187)">
                        <rect x="209.039" y="607.176" width="238.697" height="195.256" style="fill:rgb(55,83,115);fill-opacity:0.08;"/>
                    </g>
                    <g transform="matrix(0.272736,0,0,0.407766,308.983,392.179)">
                        <rect x="209.039" y="607.176" width="238.697" height="195.256" style="fill:rgb(239,239,239);stroke:rgb(17,17,17);stroke-width:2.88px;"/>
                    </g>
                    <g transform="matrix(0.272736,0,0,0.0734192,308.983,595.187)">
                        <rect x="209.039" y="607.176" width="238.697" height="195.256" style="fill:rgb(55,83,115);fill-opacity:0.08;"/>
                    </g>
                    <g transform="matrix(0.665523,0,0,0.0814467,48.2764,748.207)">
                        <rect x="209.039" y="607.176" width="238.697" height="195.256" style="fill:white;stroke:rgb(17,17,17);stroke-width:2.11px;"/>
                    </g>
                    <g transform="matrix(0.478552,0,0,0.0814467,131.99,732.304)">
                        <rect x="209.039" y="607.176" width="238.697" height="195.256" style="fill:white;stroke:rgb(17,17,17);stroke-width:2.91px;"/>
                    </g>
                    <path d="M754.868,422.614L754.868,813.562L453.64,813.562L453.64,607.176L685.905,344.673L754.868,422.614Z" style="fill:rgb(239,239,239);"/>
                    <clipPath id="_clip1">
                        <path d="M754.868,422.614L754.868,813.562L453.64,813.562L453.64,607.176L685.905,344.673L754.868,422.614Z"/>
                    </clipPath>
                    <g clip-path="url(#_clip1)">
                        <g transform="matrix(1,0,0,1,-1107,0)">
                            <path d="M1560.79,607.167L1560.64,644.323L1796.07,385.98L1828.84,418.744L1859.35,419.773L1792.9,344.673L1560.79,607.167Z" style="fill:rgb(55,83,115);fill-opacity:0.08;"/>
                        </g>
                    </g>
                    <path d="M754.868,422.614L754.868,813.562L453.64,813.562L453.64,607.176L685.905,344.673L754.868,422.614Z" style="fill:none;stroke:rgb(17,17,17);stroke-width:1px;"/>
                    <path d="M679.651,604.575L975.416,604.612L827.534,437.44L679.651,604.575Z" style="fill:rgb(239,239,239);stroke:rgb(17,17,17);stroke-width:1px;"/>
                    <g transform="matrix(0.86428,0,0,0.86428,92.2423,82.0579)">
                        <path d="M679.651,604.575L975.416,604.612L827.534,437.44L679.651,604.575Z" style="fill:rgb(239,239,239);"/>
                        <clipPath id="_clip2">
                            <path d="M679.651,604.575L975.416,604.612L827.534,437.44L679.651,604.575Z"/>
                        </clipPath>
                        <g clip-path="url(#_clip2)">
                            <g transform="matrix(1.09097,0,0,1.09097,-53.8013,-82.5819)">
                                <g transform="matrix(1,0,0,1,-1123.93,0)">
                                    <circle cx="1925.13" cy="549.455" r="29.663" style="fill:rgb(215,225,236);stroke:rgb(48,72,100);stroke-width:1.59px;"/>
                                </g>
                                <g transform="matrix(1,0,0,1,-1107,0)">
                                    <path d="M1908.21,519.792L1908.21,579.117" style="fill:none;stroke:rgb(55,83,115);stroke-width:1.59px;"/>
                                </g>
                                <g transform="matrix(6.12323e-17,-1,1,6.12323e-17,251.753,2457.66)">
                                    <path d="M1908.21,519.792L1908.21,579.117" style="fill:none;stroke:rgb(55,83,115);stroke-width:1.59px;"/>
                                </g>
                            </g>
                            <g transform="matrix(1.15703,0,0,1.15703,-1246.37,39.7788)">
                                <path d="M1665.09,487.61L1704.97,487.61L1796.07,385.98L1890.32,488.165L1919.32,487.548L1792.9,344.673L1665.09,487.61Z" style="fill:rgb(55,83,115);fill-opacity:0.08;"/>
                            </g>
                        </g>
                        <path d="M679.651,604.575L975.416,604.612L827.534,437.44L679.651,604.575Z" style="fill:none;stroke:rgb(17,17,17);stroke-width:1.16px;"/>
                    </g>
                    <g transform="matrix(0.991003,0,0,1.07384,2.95723,-26.4661)">
                        <path d="M328.689,358.432L618.422,358.432" style="fill:none;stroke:rgb(17,17,17);stroke-width:0.97px;"/>
                    </g>
                    <g transform="matrix(0.991783,0,0,1.07384,-20.4332,-0.404338)">
                        <path d="M328.689,358.432L618.422,358.432" style="fill:none;stroke:rgb(17,17,17);stroke-width:0.97px;"/>
                    </g>
                    <g transform="matrix(0.991783,0,0,1.07384,-43.4582,25.6575)">
                        <path d="M328.689,358.432L618.422,358.432" style="fill:none;stroke:rgb(17,17,17);stroke-width:0.97px;"/>
                    </g>
                    <g transform="matrix(0.991783,0,0,1.07384,-66.2415,51.7193)">
                        <path d="M328.689,358.432L618.422,358.432" style="fill:none;stroke:rgb(17,17,17);stroke-width:0.97px;"/>
                    </g>
                    <g transform="matrix(0.989835,0,0,1.07384,-88.5591,77.7811)">
                        <path d="M328.689,358.432L618.422,358.432" style="fill:none;stroke:rgb(17,17,17);stroke-width:0.97px;"/>
                    </g>
                    <g transform="matrix(0.991003,0,0,1.07384,-112.341,103.843)">
                        <path d="M328.689,358.432L618.422,358.432" style="fill:none;stroke:rgb(17,17,17);stroke-width:0.97px;"/>
                    </g>
                    <g transform="matrix(0.315247,0,0.505291,0.571074,485.716,253.317)">
                        <path d="M166.123,291.646L166.123,291.479L617.09,291.479L617.09,615.083L567.504,615.083" style="fill:none;stroke:rgb(17,17,17);stroke-width:1.41px;"/>
                    </g>
                    <g transform="matrix(0.315247,0,0.505291,0.571074,485.716,270.984)">
                        <path d="M617.09,291.479L617.09,584.147" style="fill:none;stroke:rgb(17,17,17);stroke-width:1.41px;"/>
                    </g>
                    <g transform="matrix(0.314935,0,-0.505291,0.571074,780.501,270.984)">
                        <path d="M616.999,291.479L616.999,584.147" style="fill:none;stroke:rgb(17,17,17);stroke-width:2.35px;"/>
                    </g>
                    <g transform="matrix(0.578638,0,0,1.20506,445.814,-127.108)">
                        <rect x="158.718" y="592.516" width="245.399" height="14.66" style="fill:none;stroke:rgb(17,17,17);stroke-width:1.06px;"/>
                    </g>
                    <g transform="matrix(1.01243,0,0,1.01243,-80.8595,-10.1093)">
                        <path d="M983.247,607.176L1058.75,607.176" style="fill:none;stroke:rgb(17,17,17);stroke-width:0.99px;"/>
                    </g>
                    <g transform="matrix(1.13397,0,0,1.07014,426.631,-45.1509)">
                        <rect x="209.039" y="607.176" width="238.697" height="195.256" style="fill:rgb(239,239,239);"/>
                        <clipPath id="_clip3">
                            <rect x="209.039" y="607.176" width="238.697" height="195.256"/>
                        </clipPath>
                        <g clip-path="url(#_clip3)">
                            <g transform="matrix(1,0,0,0.0751142,0,561.569)">
                                <rect x="209.039" y="607.176" width="238.697" height="195.256" style="fill:rgb(223,223,223);"/>
                            </g>
                        </g>
                        <rect x="209.039" y="607.176" width="238.697" height="195.256" style="fill:none;stroke:rgb(17,17,17);stroke-width:0.91px;"/>
                    </g>
                    <g transform="matrix(0.480807,0,0,1.07014,448.401,-45.1509)">
                        <rect x="209.039" y="607.176" width="238.697" height="195.256" style="fill:white;stroke:rgb(17,17,17);stroke-width:1.21px;"/>
                    </g>
                    <g transform="matrix(0.372549,0,0,0.90116,669.731,90.4424)">
                        <rect x="209.039" y="607.176" width="238.697" height="195.256" style="fill:none;stroke:rgb(17,17,17);stroke-width:1.45px;"/>
                    </g>
                    <g transform="matrix(0.372549,0,0,0.90116,669.731,90.4424)">
                        <rect x="209.039" y="607.176" width="238.697" height="195.256" style="fill:rgb(224,224,224);"/>
                        <clipPath id="_clip4">
                            <rect x="209.039" y="607.176" width="238.697" height="195.256"/>
                        </clipPath>
                        <g clip-path="url(#_clip4)">
                            <g transform="matrix(1,0,0,0.0831152,0,556.711)">
                                <rect x="209.039" y="607.176" width="238.697" height="195.256" style="fill:rgb(216,216,216);"/>
                            </g>
                        </g>
                        <rect x="209.039" y="607.176" width="238.697" height="195.256" style="fill:none;stroke:rgb(17,17,17);stroke-width:1.45px;"/>
                    </g>
                    <g transform="matrix(0.186274,0,0,0.213512,625.558,507.966)">
                        <rect x="209.039" y="607.176" width="238.697" height="195.256" style="fill:rgb(76,76,76);stroke:rgb(17,17,17);stroke-width:4.99px;"/>
                    </g>
                    <g transform="matrix(0.186274,0,0,0.213512,625.558,559.057)">
                        <rect x="209.039" y="607.176" width="238.697" height="195.256" style="fill:rgb(76,76,76);stroke:rgb(17,17,17);stroke-width:4.99px;"/>
                    </g>
                    <g transform="matrix(0.0763538,0,0,0.213512,630.31,507.966)">
                        <rect x="209.039" y="607.176" width="238.697" height="195.256" style="fill:rgb(114,114,114);stroke:rgb(17,17,17);stroke-width:6.24px;"/>
                    </g>
                    <g transform="matrix(0.0763538,0,0,0.213512,630.31,559.057)">
                        <rect x="209.039" y="607.176" width="238.697" height="195.256" style="fill:rgb(114,114,114);stroke:rgb(17,17,17);stroke-width:6.24px;"/>
                    </g>
                    <g transform="matrix(0.314935,0,-0.505291,0.571074,780.501,253.317)">
                        <rect x="166.123" y="291.479" width="450.876" height="292.668" style="fill:rgb(245,196,65);stroke:rgb(17,17,17);stroke-width:2.35px;"/>
                    </g>
                    <g transform="matrix(1.01243,0,0,1.01243,-80.8595,-10.1093)">
                        <path d="M1058.75,607.14L897.244,424.606L751.342,589.739L751.342,607.14L897.244,442.056L1043.31,607.14L1058.75,607.14Z" style="fill:rgb(239,239,239);stroke:rgb(17,17,17);stroke-width:0.99px;"/>
                    </g>
                    <path d="M708.96,318.617L685.905,344.673L752.354,419.773L798.463,419.773L708.96,318.617Z" style="fill:rgb(212,155,11);stroke:rgb(17,17,17);stroke-width:1px;"/>
                    <path d="M827.534,437.44L807.278,460.333L934.352,604.607L975.416,604.612L827.534,437.44Z" style="fill:rgb(212,155,11);stroke:rgb(17,17,17);stroke-width:1px;"/>
                    <g transform="matrix(1.10647,0,0,1.10647,-834.474,-86.1909)">
                        <g transform="matrix(0.842848,0,0,0.842848,808.216,351.115)">
                            <path d="M142.392,419.63C147.676,417.404 153.893,413.774 153.582,408.043C153.271,402.311 146.321,399.414 140.901,400.695C135.48,401.975 131.253,406.053 126.926,409.559C122.6,413.065 117.304,416.285 111.808,415.365C120.097,404.947 128.356,394.52 136.586,384.085C139.931,379.87 143.238,373.53 139.483,369.676C137.32,367.475 133.652,367.438 130.867,368.768C128.083,370.098 125.981,372.498 123.955,374.823L102.708,399.402L117.254,363.994C118.895,359.978 120.573,355.813 120.35,351.487C120.126,347.16 117.44,342.635 113.201,341.777C106.214,340.372 101.564,348.627 99.314,355.453C96.044,365.274 97.101,380.604 93.831,390.426C91.22,384.943 90.4,371.391 86.632,366.132C82.865,360.873 73.193,359.792 70.619,365.734C69.214,368.979 70.458,372.697 71.701,376.016L84.544,410.156C82.828,406.115 80.963,401.876 77.457,399.24C73.951,396.605 68.245,396.331 65.621,399.837C61.693,405.084 67.35,411.884 71.738,416.758C79.372,425.224 80.342,442.369 83.176,458.631C83.139,458.631 124.054,427.375 142.392,419.63Z" style="fill:rgb(245,196,65);fill-rule:nonzero;"/>
                        </g>
                        <g transform="matrix(0.842848,0,0,0.842848,808.216,351.115)">
                            <path d="M96.529,402.995C81.362,433.853 83.413,477.454 84.855,519.861" style="fill:none;fill-rule:nonzero;stroke:rgb(17,17,17);stroke-width:0.75px;stroke-miterlimit:4;"/>
                        </g>
                        <g transform="matrix(0.842848,0,0,0.842848,808.216,351.115)">
                            <path d="M87.005,394.615C89.547,403.466 90.345,412.725 89.355,421.88" style="fill:none;fill-rule:nonzero;stroke:rgb(17,17,17);stroke-width:0.75px;stroke-miterlimit:4;"/>
                        </g>
                        <g transform="matrix(0.842848,0,0,0.842848,808.216,351.115)">
                            <path d="M106.376,418.523C99.347,420.683 92.913,424.44 87.578,429.501" style="fill:none;fill-rule:nonzero;stroke:rgb(17,17,17);stroke-width:0.75px;stroke-miterlimit:4;"/>
                        </g>
                        <g transform="matrix(0.869006,0,0,0.842848,805.243,351.115)">
                            <path d="M69.841,548.212C58.761,542.153 49.245,530.349 67.636,508.622L103.292,508.622C121.706,530.358 112.163,542.155 101.073,548.212L69.841,548.212Z" style="fill:rgb(17,17,17);fill-rule:nonzero;stroke:rgb(17,17,17);stroke-width:1px;stroke-miterlimit:4;"/>
                        </g>
                        <g transform="matrix(0.842848,0,0,0.842848,808.216,351.115)">
                            <path d="M79.708,488.904C79.675,489.351 79.496,489.775 79.199,490.111C78.901,490.446 78.501,490.674 78.06,490.759C77.62,490.844 77.164,490.781 76.763,490.581C76.362,490.38 76.038,490.053 75.841,489.65C71.44,481.146 60.499,465.27 36.517,453.596C13.902,442.618 32.899,415.241 50.491,424.342C69.463,434.188 83.549,461.167 79.708,488.904Z" style="fill:rgb(245,196,65);fill-rule:nonzero;"/>
                        </g>
                        <g transform="matrix(0.842848,0,0,0.842848,808.216,351.115)">
                            <path d="M79.708,488.904C79.675,489.351 79.496,489.775 79.199,490.111C78.901,490.446 78.501,490.674 78.06,490.759C77.62,490.844 77.164,490.781 76.763,490.581C76.362,490.38 76.038,490.053 75.841,489.65C71.44,481.146 60.499,465.27 36.517,453.596C13.902,442.618 32.899,415.241 50.491,424.342C69.463,434.188 83.549,461.167 79.708,488.904Z" style="fill:white;fill-opacity:0.2;fill-rule:nonzero;"/>
                        </g>
                        <g transform="matrix(0.842848,0,0,0.842848,808.216,351.115)">
                            <path d="M49.733,441.946C49.733,441.946 74.971,459.177 80.479,503.139" style="fill:none;fill-rule:nonzero;stroke:rgb(17,17,17);stroke-width:0.75px;stroke-miterlimit:4;"/>
                        </g>
                        <g transform="matrix(0.842848,0,0,0.842848,808.216,351.115)">
                            <path d="M55.688,447.193C55.688,447.193 48.228,444.769 37.039,450.55" style="fill:none;fill-rule:nonzero;stroke:rgb(17,17,17);stroke-width:0.75px;stroke-miterlimit:4;"/>
                        </g>
                        <g transform="matrix(0.842848,0,0,0.842848,808.216,351.115)">
                            <path d="M52.779,429.166C57.565,436.024 60.2,444.152 60.35,452.514" style="fill:none;fill-rule:nonzero;stroke:rgb(17,17,17);stroke-width:0.75px;stroke-miterlimit:4;"/>
                        </g>
                        <g transform="matrix(0.842848,0,0,0.842848,808.216,351.115)">
                            <path d="M67.885,463.665C66.169,462.176 64.093,461.163 61.864,460.727C59.634,460.29 57.329,460.446 55.179,461.179" style="fill:none;fill-rule:nonzero;stroke:rgb(17,17,17);stroke-width:0.75px;stroke-miterlimit:4;"/>
                        </g>
                        <g transform="matrix(0.842848,0,0,0.842848,808.216,351.115)">
                            <path d="M71.825,471.461C73.633,466.272 74.062,460.703 73.069,455.299" style="fill:none;fill-rule:nonzero;stroke:rgb(17,17,17);stroke-width:0.75px;stroke-miterlimit:4;"/>
                        </g>
                        <g transform="matrix(0.842848,0,0,0.842848,808.216,351.115)">
                            <path d="M90.599,496.5C90.587,496.897 90.706,497.288 90.937,497.611C91.168,497.934 91.498,498.173 91.878,498.29C92.258,498.407 92.666,498.396 93.039,498.26C93.412,498.123 93.73,497.867 93.943,497.532C98.543,490.483 109.534,477.565 131.651,469.633C152.501,462.174 138.154,436.227 121.879,442.543C104.362,449.356 89.629,471.735 90.599,496.5Z" style="fill:rgb(245,196,65);fill-rule:nonzero;"/>
                        </g>
                        <g transform="matrix(0.842848,0,0,0.842848,808.216,351.115)">
                            <path d="M90.599,496.5C90.587,496.897 90.706,497.288 90.937,497.611C91.168,497.934 91.498,498.173 91.878,498.29C92.258,498.407 92.666,498.396 93.039,498.26C93.412,498.123 93.73,497.867 93.943,497.532C98.543,490.483 109.534,477.565 131.651,469.633C152.501,462.174 138.154,436.227 121.879,442.543C104.362,449.356 89.629,471.735 90.599,496.5Z" style="fill-opacity:0.2;fill-rule:nonzero;"/>
                        </g>
                        <g transform="matrix(0.842848,0,0,0.842848,808.216,351.115)">
                            <path d="M121.046,458.083C121.046,458.083 97.35,470.814 88.722,508.97" style="fill:none;fill-rule:nonzero;stroke:rgb(17,17,17);stroke-width:0.75px;stroke-miterlimit:4;"/>
                        </g>
                        <g transform="matrix(0.842848,0,0,0.842848,808.216,351.115)">
                            <path d="M115.352,462.112C115.352,462.112 122.153,460.707 131.415,466.849" style="fill:none;fill-rule:nonzero;stroke:rgb(17,17,17);stroke-width:0.75px;stroke-miterlimit:4;"/>
                        </g>
                        <g transform="matrix(0.842848,0,0,0.842848,808.216,351.115)">
                            <path d="M119.467,446.546C114.646,452.131 111.614,459.035 110.765,466.364" style="fill:none;fill-rule:nonzero;stroke:rgb(17,17,17);stroke-width:0.75px;stroke-miterlimit:4;"/>
                        </g>
                        <g transform="matrix(0.842848,0,0,0.842848,808.216,351.115)">
                            <path d="M103.206,475.452C104.85,474.303 106.769,473.607 108.768,473.434C110.767,473.262 112.776,473.619 114.594,474.47" style="fill:none;fill-rule:nonzero;stroke:rgb(17,17,17);stroke-width:0.75px;stroke-miterlimit:4;"/>
                        </g>
                        <g transform="matrix(0.842848,0,0,0.842848,808.216,351.115)">
                            <path d="M99.065,481.917C97.897,477.199 97.978,472.259 99.301,467.582" style="fill:none;fill-rule:nonzero;stroke:rgb(17,17,17);stroke-width:0.75px;stroke-miterlimit:4;"/>
                        </g>
                        <g transform="matrix(0.842848,0,0,0.842848,808.216,351.115)">
                            <path d="M65.833,508.622L103.292,508.622L105.567,498.005L63.558,498.005L65.833,508.622Z" style="fill:rgb(17,17,17);fill-rule:nonzero;stroke:rgb(17,17,17);stroke-width:1px;stroke-miterlimit:4;"/>
                        </g>
                    </g>
                    <g transform="matrix(1,0,0,1,-74.4011,56.8367)">
                        <g transform="matrix(1.05807,0,0,1.05807,-121.411,-44.5194)">
                            <path d="M1190.43,146.986C1200.45,146.986 1208.57,155.105 1208.57,165.121L1208.57,327.266C1208.57,337.281 1200.45,345.4 1190.43,345.4L960.744,345.4C950.729,345.4 942.61,337.281 942.61,327.266L942.61,165.121C942.61,155.105 950.729,146.986 960.744,146.986L1190.43,146.986Z" style="fill:rgb(239,239,239);stroke:rgb(17,17,17);stroke-width:0.95px;"/>
                        </g>
                        <g transform="matrix(1,0,0,1,-0.539939,2.84217e-14)">
                            <g transform="matrix(0.238272,0,0,0.818951,670.49,14.3489)">
                                <rect x="942.61" y="146.986" width="265.96" height="198.414" style="fill:white;stroke:rgb(17,17,17);stroke-width:1.66px;"/>
                            </g>
                            <g transform="matrix(0.238272,0,0,0.818951,760.891,14.3489)">
                                <rect x="942.61" y="146.986" width="265.96" height="198.414" style="fill:white;stroke:rgb(17,17,17);stroke-width:1.66px;"/>
                            </g>
                            <g transform="matrix(0.238272,0,0,0.818951,851.293,14.3489)">
                                <rect x="942.61" y="146.986" width="265.96" height="198.414" style="fill:white;stroke:rgb(17,17,17);stroke-width:1.66px;"/>
                            </g>
                            <g transform="matrix(0.238272,0,0,0.0833903,670.49,122.466)">
                                <rect x="942.61" y="146.986" width="265.96" height="198.414" style="fill:rgb(17,17,17);stroke:rgb(17,17,17);stroke-width:5.6px;"/>
                            </g>
                            <g transform="matrix(0.238272,0,0,0.0833903,760.891,122.466)">
                                <rect x="942.61" y="146.986" width="265.96" height="198.414" style="fill:rgb(17,17,17);stroke:rgb(17,17,17);stroke-width:5.6px;"/>
                            </g>
                            <g transform="matrix(0.238272,0,0,0.0833903,851.293,122.466)">
                                <rect x="942.61" y="146.986" width="265.96" height="198.414" style="fill:rgb(17,17,17);stroke:rgb(17,17,17);stroke-width:5.6px;"/>
                            </g>
                            <g transform="matrix(0.118562,0,0,0.0461862,808.218,166.59)">
                                <rect x="942.61" y="146.986" width="265.96" height="198.414" style="fill:rgb(242,242,242);stroke:rgb(17,17,17);stroke-width:11.11px;"/>
                            </g>
                            <g transform="matrix(0.118562,0,0,0.0461862,898.619,166.59)">
                                <rect x="942.61" y="146.986" width="265.96" height="198.414" style="fill:rgb(242,242,242);stroke:rgb(17,17,17);stroke-width:11.11px;"/>
                            </g>
                            <g transform="matrix(0.118562,0,0,0.0461862,989.021,166.59)">
                                <rect x="942.61" y="146.986" width="265.96" height="198.414" style="fill:rgb(242,242,242);stroke:rgb(17,17,17);stroke-width:11.11px;"/>
                            </g>
                            <g transform="matrix(0.118562,0,0,0.0461862,808.218,194.732)">
                                <rect x="942.61" y="146.986" width="265.96" height="198.414" style="fill:rgb(242,242,242);stroke:rgb(17,17,17);stroke-width:11.11px;"/>
                            </g>
                            <g transform="matrix(0.118562,0,0,0.0461862,898.619,194.732)">
                                <rect x="942.61" y="146.986" width="265.96" height="198.414" style="fill:rgb(242,242,242);stroke:rgb(17,17,17);stroke-width:11.11px;"/>
                            </g>
                            <g transform="matrix(0.118562,0,0,0.0461862,989.021,194.732)">
                                <rect x="942.61" y="146.986" width="265.96" height="198.414" style="fill:rgb(242,242,242);stroke:rgb(17,17,17);stroke-width:11.11px;"/>
                            </g>
                            <g transform="matrix(0.118562,0,0,0.0461862,808.218,222.874)">
                                <rect x="942.61" y="146.986" width="265.96" height="198.414" style="fill:rgb(242,242,242);stroke:rgb(17,17,17);stroke-width:11.11px;"/>
                            </g>
                            <g transform="matrix(0.118562,0,0,0.0461862,898.619,222.874)">
                                <rect x="942.61" y="146.986" width="265.96" height="198.414" style="fill:rgb(242,242,242);stroke:rgb(17,17,17);stroke-width:11.11px;"/>
                            </g>
                            <g transform="matrix(0.118562,0,0,0.0461862,989.021,222.874)">
                                <rect x="942.61" y="146.986" width="265.96" height="198.414" style="fill:rgb(242,242,242);stroke:rgb(17,17,17);stroke-width:11.11px;"/>
                            </g>
                            <g transform="matrix(0.118562,0,0,0.0461862,808.218,251.016)">
                                <rect x="942.61" y="146.986" width="265.96" height="198.414" style="fill:rgb(242,242,242);stroke:rgb(17,17,17);stroke-width:11.11px;"/>
                            </g>
                            <g transform="matrix(0.118562,0,0,0.0461862,898.619,251.016)">
                                <rect x="942.61" y="146.986" width="265.96" height="198.414" style="fill:rgb(242,242,242);stroke:rgb(17,17,17);stroke-width:11.11px;"/>
                            </g>
                            <g transform="matrix(0.118562,0,0,0.0461862,989.021,251.016)">
                                <rect x="942.61" y="146.986" width="265.96" height="198.414" style="fill:rgb(242,242,242);stroke:rgb(17,17,17);stroke-width:11.11px;"/>
                            </g>
                            <g transform="matrix(0.914396,0,0,0.914396,-864.904,-33.4835)">
                                <circle cx="1939.53" cy="231.239" r="5.011" style="fill:rgb(242,242,242);stroke:rgb(17,17,17);stroke-width:1.09px;"/>
                            </g>
                            <g transform="matrix(0.914396,0,0,0.914396,-774.503,-33.4835)">
                                <circle cx="1939.53" cy="231.239" r="5.011" style="fill:rgb(242,242,242);stroke:rgb(17,17,17);stroke-width:1.09px;"/>
                            </g>
                            <g transform="matrix(0.914396,0,0,0.914396,-684.101,-33.4835)">
                                <circle cx="1939.53" cy="231.239" r="5.011" style="fill:rgb(242,242,242);stroke:rgb(17,17,17);stroke-width:1.09px;"/>
                            </g>
                            <g transform="matrix(0.914396,0,0,0.914396,-864.904,-5.3415)">
                                <circle cx="1939.53" cy="231.239" r="5.011" style="fill:rgb(242,242,242);stroke:rgb(17,17,17);stroke-width:1.09px;"/>
                            </g>
                            <g transform="matrix(0.914396,0,0,0.914396,-774.503,-5.3415)">
                                <circle cx="1939.53" cy="231.239" r="5.011" style="fill:rgb(242,242,242);stroke:rgb(17,17,17);stroke-width:1.09px;"/>
                            </g>
                            <g transform="matrix(0.914396,0,0,0.914396,-684.101,-5.3415)">
                                <circle cx="1939.53" cy="231.239" r="5.011" style="fill:rgb(242,242,242);stroke:rgb(17,17,17);stroke-width:1.09px;"/>
                            </g>
                            <g transform="matrix(0.914396,0,0,0.914396,-864.904,22.8005)">
                                <circle cx="1939.53" cy="231.239" r="5.011" style="fill:rgb(242,242,242);stroke:rgb(17,17,17);stroke-width:1.09px;"/>
                            </g>
                            <g transform="matrix(0.914396,0,0,0.914396,-774.503,22.8005)">
                                <circle cx="1939.53" cy="231.239" r="5.011" style="fill:rgb(242,242,242);stroke:rgb(17,17,17);stroke-width:1.09px;"/>
                            </g>
                            <g transform="matrix(0.914396,0,0,0.914396,-684.101,22.8005)">
                                <circle cx="1939.53" cy="231.239" r="5.011" style="fill:rgb(242,242,242);stroke:rgb(17,17,17);stroke-width:1.09px;"/>
                            </g>
                            <g transform="matrix(0.914396,0,0,0.914396,-864.904,50.9424)">
                                <circle cx="1939.53" cy="231.239" r="5.011" style="fill:rgb(242,242,242);stroke:rgb(17,17,17);stroke-width:1.09px;"/>
                            </g>
                            <g transform="matrix(0.914396,0,0,0.914396,-774.503,50.9424)">
                                <circle cx="1939.53" cy="231.239" r="5.011" style="fill:rgb(242,242,242);stroke:rgb(17,17,17);stroke-width:1.09px;"/>
                            </g>
                            <g transform="matrix(0.914396,0,0,0.914396,-684.101,50.9424)">
                                <circle cx="1939.53" cy="231.239" r="5.011" style="fill:rgb(242,242,242);stroke:rgb(17,17,17);stroke-width:1.09px;"/>
                            </g>
                        </g>
                    </g>
                    <g transform="matrix(0.932397,0,0,0.932397,-36.5979,28.4831)">
                        <g transform="matrix(1.05807,0,0,1.05807,-53.8685,-20.3622)">
                            <g transform="matrix(1.01365,0,0,1.01365,-1034.1,-9.62705)">
                                <path d="M2160.24,769.552L2162.31,788.804L2178.31,788.308L2179.01,765.348L2160.24,769.552Z" style="fill:white;stroke:rgb(17,17,17);stroke-width:1px;"/>
                            </g>
                            <g transform="matrix(1.01365,0,0,1.01365,-997.849,-9.62705)">
                                <path d="M2159.95,767.873L2162.31,788.804L2178.31,788.308L2179.68,765.348L2159.95,767.873Z" style="fill:white;stroke:rgb(17,17,17);stroke-width:1px;"/>
                            </g>
                            <path d="M1219.19,512.296C1219.19,512.296 1246.74,547.219 1232.8,640.502C1218.86,733.785 1215.04,772.672 1215.04,772.672L1187.76,772.672L1181.01,684.02L1176.84,772.672L1152.8,772.672C1152.8,772.672 1142.09,679.696 1132.85,612.831C1123.61,545.965 1139.08,512.296 1139.08,512.296L1219.19,512.296Z" style="fill:rgb(17,17,17);"/>
                            <clipPath id="_clip5">
                                <path d="M1219.19,512.296C1219.19,512.296 1246.74,547.219 1232.8,640.502C1218.86,733.785 1215.04,772.672 1215.04,772.672L1187.76,772.672L1181.01,684.02L1176.84,772.672L1152.8,772.672C1152.8,772.672 1142.09,679.696 1132.85,612.831C1123.61,545.965 1139.08,512.296 1139.08,512.296L1219.19,512.296Z"/>
                            </clipPath>
                            <g clip-path="url(#_clip5)">
                                <path d="M1121.98,517.515C1106.6,541.689 1241.05,480.062 1235.45,595C1233.9,626.676 1261.96,551.388 1243.51,518.36C1243.21,517.822 1238.96,504.058 1219.67,497.158C1205.42,492.057 1122.27,494.002 1121.98,517.515Z" style="fill:rgb(17,17,17);"/>
                            </g>
                            <path d="M1219.19,512.296C1219.19,512.296 1246.74,547.219 1232.8,640.502C1218.86,733.785 1215.04,772.672 1215.04,772.672L1187.76,772.672L1181.01,684.02L1176.84,772.672L1152.8,772.672C1152.8,772.672 1142.09,679.696 1132.85,612.831C1123.61,545.965 1139.08,512.296 1139.08,512.296L1219.19,512.296Z" style="fill:none;stroke:rgb(17,17,17);stroke-width:1.01px;"/>
                            <path d="M1162.23,324.183C1153.59,322.132 1142.57,329.259 1147.43,339.457C1151.45,347.911 1142.3,345.282 1140.21,352.346C1137.59,361.223 1149.99,361.931 1146.35,367.222C1136.86,381.009 1149.87,380.404 1150.43,384.017C1151.16,388.665 1142.2,407.154 1188.03,409.623C1197.71,410.145 1229.6,407.19 1227.96,397.031C1226.73,389.428 1227.47,389.098 1232.97,383.663C1241.38,375.352 1227.28,370.911 1229.45,363.596C1229.82,362.348 1237.86,349.409 1225.74,343.423C1223.46,342.297 1217.38,342.699 1218.42,336.838C1218.89,334.191 1220.96,328.769 1215.11,324.405C1208.32,319.334 1200.84,325.699 1197.14,319.264C1187.06,301.761 1175.86,314.291 1173.62,315.335C1170.7,316.695 1167.92,316.587 1166.28,317.062C1162.88,318.045 1162.75,322.883 1162.23,324.183" style="fill:rgb(17,17,17);stroke:rgb(17,17,17);stroke-width:1.01px;"/>
                            <path d="M1134.15,411.035C1144.65,401.427 1158.08,397.333 1176.62,397.202C1191.89,397.094 1230.68,387.781 1240.11,435.018C1245.06,459.841 1245.09,481.197 1244.57,492.676C1244.17,497.84 1240.08,501.948 1234.91,502.355C1227.64,502.966 1218.6,503.679 1218.6,503.679L1219.19,512.296L1139.85,512.131L1139.08,498.456L1113.16,503.979C1113.16,503.979 1109.25,475.675 1113.53,453.497C1117.05,435.208 1123.65,420.643 1134.15,411.035Z" style="fill:rgb(245,196,65);"/>
                            <clipPath id="_clip6">
                                <path d="M1134.15,411.035C1144.65,401.427 1158.08,397.333 1176.62,397.202C1191.89,397.094 1230.68,387.781 1240.11,435.018C1245.06,459.841 1245.09,481.197 1244.57,492.676C1244.17,497.84 1240.08,501.948 1234.91,502.355C1227.64,502.966 1218.6,503.679 1218.6,503.679L1219.19,512.296L1139.85,512.131L1139.08,498.456L1113.16,503.979C1113.16,503.979 1109.25,475.675 1113.53,453.497C1117.05,435.208 1123.65,420.643 1134.15,411.035Z"/>
                            </clipPath>
                            <g clip-path="url(#_clip6)">
                                <path d="M1200.26,498.236C1189.79,497.295 1181.54,488.581 1176.71,497.691C1173.99,502.852 1178.41,515.797 1196.94,521.298C1205.16,523.736 1216.92,528.903 1236.38,518.755C1238.87,517.458 1247.11,510.305 1249.58,505.194C1250.34,503.611 1253.73,496.595 1251.31,483.284C1249.88,475.393 1247.05,472.791 1247,472.802C1245.64,473.093 1243.49,492.982 1234.55,496.036C1232.64,496.686 1224.21,500.39 1200.26,498.236Z" style="fill:rgb(196,157,52);"/>
                                <path d="M1215.91,478.009C1215.53,472.21 1212.71,462.712 1209.12,445.016C1208.16,466.192 1205.79,476.636 1197.18,479.363C1174.51,486.545 1131.36,463.774 1122.33,472.801C1116.61,478.518 1181.72,489.676 1181.72,489.676C1181.72,489.676 1199.16,483.522 1215.91,478.009Z" style="fill:rgb(196,157,52);"/>
                                <path d="M1140.46,427.554C1140.48,435.17 1140.42,440.377 1137.9,457.768C1137.5,460.488 1135.97,458.523 1122.33,462.477C1134.6,446.235 1136.5,439.144 1140.46,427.554Z" style="fill:rgb(196,157,52);"/>
                            </g>
                            <path d="M1134.15,411.035C1144.65,401.427 1158.08,397.333 1176.62,397.202C1191.89,397.094 1230.68,387.781 1240.11,435.018C1245.06,459.841 1245.09,481.197 1244.57,492.676C1244.17,497.84 1240.08,501.948 1234.91,502.355C1227.64,502.966 1218.6,503.679 1218.6,503.679L1219.19,512.296L1139.85,512.131L1139.08,498.456L1113.16,503.979C1113.16,503.979 1109.25,475.675 1113.53,453.497C1117.05,435.208 1123.65,420.643 1134.15,411.035Z" style="fill:none;stroke:rgb(17,17,17);stroke-width:1.01px;"/>
                            <path d="M1140.37,434.399C1139.34,448.287 1139.39,448.28 1135.41,461.691" style="fill:none;stroke:rgb(17,17,17);stroke-width:1.01px;"/>
                            <path d="M1140.46,425.761L1140.56,429.348" style="fill:none;stroke:rgb(17,17,17);stroke-width:1.01px;"/>
                            <path d="M1172.57,558.673C1162.26,619.031 1168.27,691.275 1172.57,772.672L1176.84,772.672L1181.01,694.128L1172.57,558.673Z" style="fill:rgb(17,17,17);"/>
                            <g transform="matrix(0.859921,0,0.318113,0.874684,9.16326,55.9514)">
                                <rect x="1079.36" y="446.484" width="101.746" height="65.733" style="fill:rgb(239,239,239);stroke:rgb(17,17,17);stroke-width:0.98px;"/>
                            </g>
                            <g transform="matrix(0.807867,0.215373,-0.198415,0.744257,305.745,-109.671)">
                                <path d="M1088.14,492.629C1085.95,489.458 1087.33,478.91 1086.51,477.368C1085.02,474.551 1088.15,475.492 1089.11,476.157C1089.39,476.353 1091.11,477.089 1091.46,479.768C1091.73,481.836 1090.73,483.779 1091.92,486.298L1088.14,492.629Z" style="fill:white;stroke:rgb(17,17,17);stroke-width:1.26px;"/>
                            </g>
                            <g transform="matrix(1,0,0,0.809651,0,95.9318)">
                                <rect x="1100.27" y="503.979" width="87.493" height="6.383" style="fill:rgb(217,217,217);stroke:rgb(17,17,17);stroke-width:1.11px;"/>
                            </g>
                            <g transform="matrix(0.405838,0,0,0.809651,741.23,95.9318)">
                                <rect x="1100.27" y="503.979" width="87.493" height="6.383" style="fill:rgb(180,180,180);stroke:rgb(17,17,17);stroke-width:1.58px;"/>
                            </g>
                            <g transform="matrix(0.990679,0,0,0.956536,10.7585,22.5354)">
                                <path d="M1093.51,489.246C1094.07,488.848 1099.35,484.039 1100.97,483.183C1104.12,481.519 1105.43,482.653 1102.21,486.339C1101.33,487.352 1096.8,492.137 1095.61,493.675C1096.28,493.21 1101.75,488.255 1103.37,487.399C1106.35,485.824 1107.08,486.938 1104.49,490.162C1103.6,491.283 1100.2,494.904 1099.77,495.5C1101.7,494.005 1103.5,493.69 1103.94,493.337C1109.06,489.253 1107.28,494.119 1105.96,495.437C1102.7,498.701 1098.17,504.763 1095.25,503.134C1094.68,502.815 1094.76,501.452 1094.98,500.788C1093.97,501.303 1092.54,501.523 1091.6,500.425C1090.49,499.123 1091.47,498.025 1092.09,497.101C1091.42,497.153 1089.66,498.765 1088.25,497.101C1087.11,495.746 1088.68,494.454 1088.73,493.82C1087.95,493.997 1086.6,493.986 1085.87,493.151C1083.96,490.983 1089.42,487.564 1091.85,484.989C1093.65,483.081 1095.37,481.675 1096.82,480.753C1100.56,478.376 1102.49,479.218 1099.36,482.978C1098.46,484.059 1094.25,488.221 1093.51,489.246Z" style="fill:white;stroke:rgb(17,17,17);stroke-width:1.04px;"/>
                            </g>
                            <path d="M1172.57,558.673C1174.71,611.787 1176.17,625.217 1181.01,684.02" style="fill:none;stroke:white;stroke-width:1.01px;"/>
                            <path d="M1167.99,382.967C1168.99,394.757 1166.74,399.862 1164.89,405.934C1173.93,418.744 1195.9,403.39 1195.9,403.39C1195.9,403.39 1189.62,383.099 1190.6,366.479C1188.68,367.347 1181.96,372.512 1167.99,382.967Z" style="fill:white;stroke:rgb(17,17,17);stroke-width:1.01px;"/>
                            <path d="M1192.42,388.757C1191.44,395.419 1191.79,399.53 1180.29,404.488C1183.03,407.894 1180.4,415.259 1180.4,415.259C1188.87,413.996 1201.15,406.104 1198.89,398.393C1198.89,398.393 1196.72,389.778 1192.42,388.757Z" style="fill:rgb(17,17,17);stroke:rgb(17,17,17);stroke-width:1.01px;"/>
                            <path d="M1169.2,415.259C1158.68,410.079 1161.55,400.503 1167.98,393.445C1166,399.673 1169.89,402.008 1169.89,402.008C1169.89,402.008 1169.38,406.707 1169.2,415.259Z" style="fill:rgb(17,17,17);stroke:rgb(17,17,17);stroke-width:1.01px;"/>
                            <path d="M1190.47,357.444C1190.83,347.499 1201.32,350.472 1198.39,361.148C1196.61,367.625 1191.67,366.254 1190.58,369.043C1185.15,382.785 1176.51,388.945 1169.18,387.845C1165.55,387.299 1164.13,386.983 1160.91,382.615C1154.95,374.54 1156.01,362.212 1155.73,359.849C1155.52,358.111 1156.63,347.446 1161.61,338.686C1162.91,336.41 1165.65,333.999 1167.64,333.266C1166.61,340.27 1168.43,343.308 1172.18,347.386C1181.38,357.388 1186.38,347.888 1190.47,357.444Z" style="fill:white;stroke:rgb(17,17,17);stroke-width:1.01px;"/>
                            <g transform="matrix(1,0,0,1,-36.9279,0)">
                                <path d="M1211.35,785.434C1211.35,785.434 1211.5,802.325 1211.58,810.59C1211.59,811.765 1211.13,812.897 1210.3,813.732C1209.47,814.568 1208.35,815.038 1207.17,815.038C1195.03,815.038 1162.21,815.038 1162.21,815.038C1162.21,815.038 1158.52,801.626 1173.46,800.139C1188.4,798.653 1191.35,793.207 1191.35,793.207L1191.67,785.434L1211.35,785.434Z" style="fill:rgb(245,196,65);stroke:rgb(17,17,17);stroke-width:1.01px;"/>
                            </g>
                            <path d="M1211.35,785.434C1211.35,785.434 1211.5,802.325 1211.58,810.59C1211.59,811.765 1211.13,812.897 1210.3,813.732C1209.47,814.568 1208.35,815.038 1207.17,815.038C1202.28,815.038 1162.21,815.038 1162.21,815.038C1162.21,815.038 1157.84,805.954 1172.78,804.468C1187.72,802.982 1191.35,793.207 1191.35,793.207L1191.67,785.434L1211.35,785.434Z" style="fill:rgb(245,196,65);stroke:rgb(17,17,17);stroke-width:1.01px;"/>
                            <g transform="matrix(1.01365,0,0,1.01365,-1034.1,-9.62705)">
                                <path d="M2190.31,782.715L2197.38,782.708C2197.38,782.708 2196.78,787.529 2196.3,791.399C2195.85,795.049 2194.08,798.408 2191.33,800.846C2189.31,802.618 2186.93,804.299 2184.83,804.552C2177.93,805.382 2174.69,803.481 2174.69,803.481C2174.69,803.481 2177.69,801.977 2180.75,800.439C2184.86,798.379 2187.8,794.562 2188.75,790.069C2189.53,786.413 2190.31,782.715 2190.31,782.715Z" style="fill:rgb(17,17,17);stroke:rgb(17,17,17);stroke-width:1px;"/>
                            </g>
                            <g transform="matrix(1.07038,0,-0.0958363,0.881793,-1119.67,93.8319)">
                                <path d="M2190.31,782.715L2197.38,782.708C2197.38,782.708 2196.77,787.61 2196.29,791.497C2195.88,794.828 2194.51,797.763 2192.41,799.812C2190.23,801.924 2187.33,804.251 2184.83,804.552C2177.93,805.382 2174.69,803.481 2174.69,803.481C2174.69,803.481 2178.22,801.709 2181.54,800.045C2185.17,798.222 2187.81,794.517 2188.8,789.863C2189.55,786.275 2190.31,782.715 2190.31,782.715Z" style="fill:rgb(17,17,17);stroke:rgb(17,17,17);stroke-width:1.09px;"/>
                            </g>
                            <g transform="matrix(1.33385,0,0,1.01365,-1733.99,-9.6828)">
                                <path d="M2188.03,788.283C2189.88,787.607 2191.15,788.168 2192.8,789.077" style="fill:none;stroke:white;stroke-width:0.81px;"/>
                            </g>
                            <g transform="matrix(1.40851,0,-0.0958363,0.881793,-1858.73,93.7834)">
                                <path d="M2188.03,788.283C2189.88,787.607 2191.15,788.168 2192.8,789.077" style="fill:none;stroke:white;stroke-width:0.86px;"/>
                            </g>
                            <g transform="matrix(1.22312,0,0,1.01365,-1491.66,-9.08869)">
                                <path d="M2186.53,791.914C2189.38,791.814 2189.78,792.189 2191.41,793.204" style="fill:none;stroke:white;stroke-width:0.86px;"/>
                            </g>
                            <g transform="matrix(1.29158,0,-0.0958363,0.881793,-1602.9,94.3002)">
                                <path d="M2186.53,791.914C2189.38,791.814 2189.78,792.189 2191.41,793.204" style="fill:none;stroke:white;stroke-width:0.92px;"/>
                            </g>
                            <g transform="matrix(1.01365,0,0,1.01365,-1032.5,-9.6828)">
                                <path d="M2183,796.658C2184.41,796.475 2186.09,795.867 2188.36,798.442" style="fill:none;stroke:white;stroke-width:0.95px;"/>
                            </g>
                            <g transform="matrix(1.07038,0,-0.0958363,0.881793,-1117.98,93.7834)">
                                <path d="M2183,796.658C2184.41,796.475 2186.09,795.867 2188.36,798.442" style="fill:none;stroke:white;stroke-width:1.04px;"/>
                            </g>
                            <g transform="matrix(1.01365,0,0,1.191,-1032.46,-152.149)">
                                <path d="M2178.83,800.576C2180.71,800.632 2181.06,800.555 2182.96,801.946" style="fill:none;stroke:white;stroke-width:0.87px;"/>
                            </g>
                            <g transform="matrix(1.07038,0,-0.112604,1.03608,-1104.47,-30.1514)">
                                <path d="M2178.83,800.576C2180.71,800.632 2181.06,800.555 2182.96,801.946" style="fill:none;stroke:white;stroke-width:0.97px;"/>
                            </g>
                        </g>
                        <g transform="matrix(1.05807,0,0,1.05807,-53.8685,-20.3622)">
                            <path d="M1208.05,431.02C1207.9,432.753 1207.67,435.381 1208.46,441.343" style="fill:none;stroke:rgb(17,17,17);stroke-width:1.01px;"/>
                        </g>
                        <g transform="matrix(1.05807,0,0,1.05807,-53.8685,-20.3622)">
                            <path d="M1209.19,445.737C1210.4,452.002 1212.95,464.187 1216.01,475.662" style="fill:none;stroke:rgb(17,17,17);stroke-width:1.01px;"/>
                        </g>
                        <g transform="matrix(1.05807,0,0,1.05807,-53.8685,-20.3622)">
                            <path d="M1182.54,489.636C1200.1,483.592 1217.81,475.791 1226.76,478.276" style="fill:none;stroke:rgb(17,17,17);stroke-width:1.01px;"/>
                        </g>
                        <g transform="matrix(1.05807,0,0,1.05807,-53.8685,-20.3622)">
                            <path d="M1215.47,478.158C1216.77,476.421 1217.45,474.466 1221.87,471.968" style="fill:none;stroke:rgb(17,17,17);stroke-width:1.01px;"/>
                        </g>
                    </g>
                    <g transform="matrix(2.9324,0,0,2.9324,-4471.35,-803.089)">
                        <path d="M1645.85,387.057L1659.99,387.057L1677.17,449.273L1662.61,449.273L1645.85,387.057Z" style="fill:white;fill-opacity:0.54;"/>
                    </g>
                    <g transform="matrix(2.14036,0,0,2.14036,-3204.1,-378.505)">
                        <path d="M1659.16,336.893L1677.52,414.768L1667.27,417.154L1653.17,343.598L1659.16,336.893Z" style="fill:white;fill-opacity:0.54;"/>
                    </g>
                    <g transform="matrix(0.529364,0,-0.551563,0.623369,424.981,150.216)">
                        <path d="M708.521,291.479L708.521,584.147L166.123,584.147L166.123,291.479L708.521,291.479ZM693.34,299.671L181.305,299.671L181.305,575.955L693.34,575.955L693.34,299.671Z" style="fill:rgb(66,66,66);stroke:rgb(17,17,17);stroke-width:2.27px;"/>
                    </g>
                </g>
                <g transform="matrix(0.0256423,0,0,1,1633.7,188.253)">
                    <path d="M618.25,2205.44L1853.18,2205.44" style="fill:none;stroke:rgb(17,17,17);stroke-width:1.41px;"/>
                </g>
                <g transform="matrix(0.0111225,0,0,1,571.137,188.253)">
                    <path d="M618.25,2205.44L1853.18,2205.44" style="fill:none;stroke:rgb(17,17,17);stroke-width:1.41px;"/>
                </g>
                <g transform="matrix(0.842274,0,0,1,79.8422,188.253)">
                    <path d="M618.25,2205.44L1853.18,2205.44" style="fill:none;stroke:rgb(17,17,17);stroke-width:1.08px;"/>
                </g>
                <g>
                    <g transform="matrix(1,0,0,1,0.775097,3.56204)">
                        <circle cx="1563.03" cy="1941.07" r="6.888" style="fill:white;fill-opacity:0.35;stroke:rgb(17,17,17);stroke-width:1px;"/>
                    </g>
                    <g transform="matrix(1,0,0,1,18.4434,3.56204)">
                        <circle cx="1563.03" cy="1941.07" r="6.888" style="fill:white;fill-opacity:0.35;stroke:rgb(17,17,17);stroke-width:1px;"/>
                    </g>
                    <g transform="matrix(1,0,0,1,2.41638,2.4565)">
                        <path d="M1568.28,1942.18L1572.17,1942.18" style="fill:none;stroke:rgb(17,17,17);stroke-width:1px;"/>
                    </g>
                </g>
                <path d="M1587.93,1942.24L1596.99,1937.75" style="fill:none;stroke:rgb(17,17,17);stroke-width:1px;"/>
            </g>
            <g>
                <g transform="matrix(0.602422,0,0,0.602422,-116.949,1605.51)">
                    <circle cx="1348.15" cy="154.733" r="67.556" style="fill:rgb(245,196,65);stroke:rgb(17,17,17);stroke-width:1.66px;"/>
                </g>
                <g transform="matrix(1.20789,0,0,1.20789,-929.706,1484.46)">
                    <path d="M1345.25,92.918L1345.25,100.215M1345.25,110.112L1345.25,124.826" style="fill:none;stroke:rgb(17,17,17);stroke-width:0.83px;"/>
                </g>
                <g transform="matrix(1.16673,0.312625,-0.312625,1.16673,-818.882,1071.2)">
                    <path d="M1345.25,92.918L1345.25,100.2M1345.25,110.099L1345.25,124.826" style="fill:none;stroke:rgb(17,17,17);stroke-width:0.83px;"/>
                </g>
                <g transform="matrix(1.04606,0.603945,-0.603945,1.04606,-604.875,700.71)">
                    <path d="M1345.25,92.918L1345.25,100.213M1345.25,110.111L1345.25,124.826" style="fill:none;stroke:rgb(17,17,17);stroke-width:0.83px;"/>
                </g>
                <g transform="matrix(0.854107,0.854107,-0.854107,0.854107,-302.27,398.231)">
                    <path d="M1345.25,92.918L1345.25,100.23M1345.25,110.126L1345.25,124.826" style="fill:none;stroke:rgb(17,17,17);stroke-width:0.83px;"/>
                </g>
                <g transform="matrix(0.603945,1.04606,-1.04606,0.603945,68.3111,184.378)">
                    <path d="M1345.25,92.918L1345.25,100.213M1345.25,110.111L1345.25,124.826" style="fill:none;stroke:rgb(17,17,17);stroke-width:0.83px;"/>
                </g>
                <g transform="matrix(0.312625,1.16673,-1.16673,0.312625,481.615,73.726)">
                    <path d="M1345.25,92.918L1345.25,100.2M1345.25,110.099L1345.25,124.826" style="fill:none;stroke:rgb(17,17,17);stroke-width:0.83px;"/>
                </g>
                <g transform="matrix(2.68205e-16,1.20789,-1.20789,2.68205e-16,909.474,73.8149)">
                    <path d="M1345.25,92.918L1345.25,100.215M1345.25,110.112L1345.25,124.826" style="fill:none;stroke:rgb(17,17,17);stroke-width:0.83px;"/>
                </g>
                <g transform="matrix(-0.312625,1.16673,-1.16673,-0.312625,1322.73,184.639)">
                    <path d="M1345.25,92.918L1345.25,100.2M1345.25,110.099L1345.25,124.826" style="fill:none;stroke:rgb(17,17,17);stroke-width:0.83px;"/>
                </g>
                <g transform="matrix(-0.603945,1.04606,-1.04606,-0.603945,1693.22,398.646)">
                    <path d="M1345.25,92.918L1345.25,100.213M1345.25,110.111L1345.25,124.826" style="fill:none;stroke:rgb(17,17,17);stroke-width:0.83px;"/>
                </g>
                <g transform="matrix(-0.854107,0.854107,-0.854107,-0.854107,1995.7,701.251)">
                    <path d="M1345.25,92.918L1345.25,100.23M1345.25,110.126L1345.25,124.826" style="fill:none;stroke:rgb(17,17,17);stroke-width:0.83px;"/>
                </g>
                <g transform="matrix(-1.04606,0.603945,-0.603945,-1.04606,2209.56,1071.83)">
                    <path d="M1345.25,92.918L1345.25,100.213M1345.25,110.111L1345.25,124.826" style="fill:none;stroke:rgb(17,17,17);stroke-width:0.83px;"/>
                </g>
                <g transform="matrix(-1.16673,0.312625,-0.312625,-1.16673,2320.21,1485.14)">
                    <path d="M1345.25,92.918L1345.25,100.2M1345.25,110.099L1345.25,124.826" style="fill:none;stroke:rgb(17,17,17);stroke-width:0.83px;"/>
                </g>
                <g transform="matrix(1.20789,0,0,1.20789,-929.706,1649.98)">
                    <path d="M1345.25,92.918L1345.25,107.632M1345.25,117.53L1345.25,124.826" style="fill:none;stroke:rgb(17,17,17);stroke-width:0.83px;"/>
                </g>
                <g transform="matrix(1.16673,0.312625,-0.312625,1.16673,-861.723,1231.09)">
                    <path d="M1345.25,92.918L1345.25,107.645M1345.25,117.544L1345.25,124.826" style="fill:none;stroke:rgb(17,17,17);stroke-width:0.83px;"/>
                </g>
                <g transform="matrix(1.04606,0.603945,-0.603945,1.04606,-687.637,844.058)">
                    <path d="M1345.25,92.918L1345.25,107.633M1345.25,117.531L1345.25,124.826" style="fill:none;stroke:rgb(17,17,17);stroke-width:0.83px;"/>
                </g>
                <g transform="matrix(0.854107,0.854107,-0.854107,0.854107,-419.313,515.274)">
                    <path d="M1345.25,92.918L1345.25,107.619M1345.25,117.514L1345.25,124.826" style="fill:none;stroke:rgb(17,17,17);stroke-width:0.83px;"/>
                </g>
                <g transform="matrix(0.603945,1.04606,-1.04606,0.603945,-75.0364,267.14)">
                    <path d="M1345.25,92.918L1345.25,107.633M1345.25,117.531L1345.25,124.826" style="fill:none;stroke:rgb(17,17,17);stroke-width:0.83px;"/>
                </g>
                <g transform="matrix(0.312625,1.16673,-1.16673,0.312625,321.731,116.567)">
                    <path d="M1345.25,92.918L1345.25,107.645M1345.25,117.544L1345.25,124.826" style="fill:none;stroke:rgb(17,17,17);stroke-width:0.83px;"/>
                </g>
                <g transform="matrix(2.68205e-16,1.20789,-1.20789,2.68205e-16,743.95,73.8149)">
                    <path d="M1345.25,92.918L1345.25,107.632M1345.25,117.53L1345.25,124.826" style="fill:none;stroke:rgb(17,17,17);stroke-width:0.83px;"/>
                </g>
                <g transform="matrix(-0.312625,1.16673,-1.16673,-0.312625,1162.85,141.798)">
                    <path d="M1345.25,92.918L1345.25,107.645M1345.25,117.544L1345.25,124.826" style="fill:none;stroke:rgb(17,17,17);stroke-width:0.83px;"/>
                </g>
                <g transform="matrix(-0.603945,1.04606,-1.04606,-0.603945,1549.88,315.884)">
                    <path d="M1345.25,92.918L1345.25,107.633M1345.25,117.531L1345.25,124.826" style="fill:none;stroke:rgb(17,17,17);stroke-width:0.83px;"/>
                </g>
                <g transform="matrix(-0.854107,0.854107,-0.854107,-0.854107,1878.66,584.208)">
                    <path d="M1345.25,92.918L1345.25,107.619M1345.25,117.514L1345.25,124.826" style="fill:none;stroke:rgb(17,17,17);stroke-width:0.83px;"/>
                </g>
                <g transform="matrix(-1.04606,0.603945,-0.603945,-1.04606,2126.79,928.485)">
                    <path d="M1345.25,92.918L1345.25,107.633M1345.25,117.531L1345.25,124.826" style="fill:none;stroke:rgb(17,17,17);stroke-width:0.83px;"/>
                </g>
                <g transform="matrix(-1.16673,0.312625,-0.312625,-1.16673,2277.37,1325.25)">
                    <path d="M1345.25,92.918L1345.25,107.645M1345.25,117.544L1345.25,124.826" style="fill:none;stroke:rgb(17,17,17);stroke-width:0.83px;"/>
                </g>
            </g>
        </g>
    </g>
</svg>
