<?xml version="1.0" encoding="utf-8"?>
<!-- Generator: Adobe Illustrator 27.2.0, SVG Export Plug-In . SVG Version: 6.00 Build 0)  -->
<svg version="1.1" id="Layer_1" xmlns="http://www.w3.org/2000/svg" xmlns:xlink="http://www.w3.org/1999/xlink" x="0px" y="0px"
	 viewBox="0 0 2000 2000" style="enable-background:new 0 0 2000 2000;" xml:space="preserve">
<style type="text/css">
	.st0{fill:#FEAD00;}
	.st1{fill:#08B7F8;}
</style>
<g>
	<path class="st0" d="M593.3,825.4c-28.2,0-51,9.5-68.3,28.5c-17.3,19-25.9,47.7-25.9,86c0,37.7,8.9,66.3,26.6,85.8
		c17.7,19.5,40.3,29.2,67.6,29.2c27.3,0,49.7-9.7,67.2-29c17.5-19.3,26.3-48.3,26.3-87c0-38.2-8.5-66.7-25.6-85.5
		C644.2,834.8,621.6,825.4,593.3,825.4z"/>
	<path class="st0" d="M745.9,735.4h-188c-43,0-78.2,33.1-81.7,75.1c13.2-13.2,27.6-23,43.3-29.5c21.1-8.8,45.5-13.2,73.1-13.2
		c50,0,90,15.2,120,45.7c30,30.5,45,72.8,45,127.1c0,53.8-14.9,95.9-44.7,126.3c-12.3,12.5-26.3,22.5-41.9,29.8h74.9
		c45.3,0,82-36.7,82-82V817.4C827.9,772.1,791.2,735.4,745.9,735.4z"/>
</g>
<g>
	<g>
		<g>
			<g>
				<path class="st1" d="M685.1,1262.4v-130.5h40.1l24.1,89l23.8-89h40.2v130.5h-24.9v-102.7l-26.4,102.7h-25.8L710,1159.7v102.7
					H685.1z"/>
				<path class="st1" d="M959.8,1262.4h-29.2l-11.6-29.6h-53.1l-11,29.6h-28.4l51.7-130.5h28.4L959.8,1262.4z M910.4,1210.8
					l-18.3-48.4l-17.9,48.4H910.4z"/>
				<path class="st1" d="M990.1,1262.4V1154h-39.4v-22.1h105.5v22.1h-39.3v108.4H990.1z"/>
				<path class="st1" d="M1158.5,1214.4l26,8.1c-4,14.2-10.6,24.8-19.9,31.7c-9.3,6.9-21,10.4-35.3,10.4c-17.6,0-32.1-5.9-43.5-17.8
					c-11.4-11.8-17-28-17-48.5c0-21.7,5.7-38.6,17.1-50.6c11.4-12,26.4-18,45-18c16.2,0,29.4,4.7,39.6,14.1c6,5.6,10.6,13.6,13.6,24
					l-26.5,6.2c-1.6-6.8-4.8-12.1-9.8-16c-5-3.9-11-5.9-18.2-5.9c-9.8,0-17.8,3.5-24,10.4c-6.1,6.9-9.2,18.2-9.2,33.7
					c0,16.5,3,28.2,9.1,35.2c6,7,13.9,10.5,23.6,10.5c7.1,0,13.3-2.2,18.4-6.7C1152.6,1231,1156.3,1224,1158.5,1214.4z"/>
				<path class="st1" d="M1207.6,1262.4v-130.5h26.8v51.3h52.5v-51.3h26.8v130.5H1287v-57h-52.5v57H1207.6z"/>
			</g>
		</g>
		<g>
			<g>
				<g>
					<path class="st1" d="M146.7,1068.9c12.3,10.3,28.8,15.5,49.6,15.5c22.1,0,38.7-4.6,49.9-13.8c11.2-9.2,16.8-19.9,16.8-32.2
						c0-7.9-2.4-14.6-7.1-20.1c-4.7-5.5-12.9-10.3-24.6-14.4c-8-2.7-26.3-7.6-54.8-14.5c-29.5-7.2-51.9-15.7-67.2-25.5v50.9
						c0,2.3,0.1,4.6,0.3,6.9l12.8-1.2C126.3,1042.4,134.5,1058.6,146.7,1068.9z"/>
				</g>
				<g>
					<path class="st1" d="M388.6,735.4H191.2c-44.8,0-81.2,36-82,80.6c4.8-3,10.1-5.7,15.7-8.1c18.4-7.7,40.7-11.6,66.8-11.6
						c42.6,0,74.6,9.2,96.1,27.5c21.5,18.3,32.8,42.8,33.9,73.4l-68.5,3c-2.9-17.1-9.2-29.4-18.9-36.9c-9.6-7.5-24.1-11.3-43.4-11.3
						c-19.9,0-35.5,4-46.7,12c-7.3,5.2-10.9,12-10.9,20.7c0,7.9,3.4,14.6,10.2,20.2c8.6,7.1,29.6,14.5,62.9,22.3
						c33.3,7.7,58,15.7,73.9,24c16,8.3,28.5,19.5,37.5,33.9s13.5,32,13.5,53.1c0,19.1-5.4,37-16.2,53.6c-1.1,1.7-2.2,3.3-3.4,4.9
						h76.7c45.3,0,82-36.7,82-82V817.4C470.6,772.1,433.8,735.4,388.6,735.4z"/>
				</g>
			</g>
			<g>
				<g>
					<path class="st1" d="M1093,735.4H905c-30.3,0-56.7,16.4-70.9,40.9h57.4v250.6h170.3v69.8h31.2c45.3,0,82-36.7,82-82V817.4
						C1175,772.1,1138.3,735.4,1093,735.4z"/>
				</g>
			</g>
			<g>
				<g>
					<path class="st1" d="M1490.2,735.4h-266.4c-23.6,0-42.8,19.2-42.8,42.8v184.3l79.1-188.9h76.4l139,323.2h14.7
						c23.6,0,42.8-19.2,42.8-42.8V778.2C1533,754.6,1513.9,735.4,1490.2,735.4z"/>
				</g>
				<g>
					<polygon class="st1" points="1249.1,963.5 1346.8,963.5 1297.4,851.3 					"/>
				</g>
				<g>
					<path class="st1" d="M1230.3,1025.2l-26.8,66.4c6.1,3.3,13,5.1,20.4,5.1H1397l-29.9-71.6H1230.3z"/>
				</g>
			</g>
			<g>
				<g>
					<path class="st1" d="M1707.8,919.7c4.6-6.7,6.9-15,6.9-25c0-11.2-3-20.3-9.1-27.2c-6.1-6.9-14.7-11.3-25.8-13.1
						c-5.6-0.8-22.2-1.1-50-1.1h-53.5v84.6h50.7c32.9,0,53.4-1.4,61.6-4.1C1696.8,931,1703.2,926.3,1707.8,919.7z"/>
				</g>
				<g>
					<path class="st1" d="M1801.1,735.4h-172.7c-39.7,0-73.4,25.8-85.2,61.5h108.8c36.2,0,62.6,3,79,9c16.4,6,29.6,16.6,39.5,31.9
						c9.9,15.3,14.8,32.8,14.8,52.5c0,25-7.5,45.7-22.4,61.9c-15,16.3-37.3,26.6-67.1,30.8c14.8,8.5,27,17.8,36.7,28
						c9.6,10.2,22.6,28.2,39,54.1l20.1,31.6h9.5c49.5,0,89.7-40.1,89.7-89.7v-182C1890.8,775.5,1850.6,735.4,1801.1,735.4z"/>
				</g>
				<g>
					<path class="st1" d="M1645.4,1008.7c-6.5-6.7-13.3-11.4-20.6-13.9c-7.3-2.5-18.7-3.8-34.5-3.8h-13.9v89
						c14.7,10.5,32.6,16.6,52,16.6h79.7l-26.7-39.1C1663.9,1031.7,1651.8,1015.4,1645.4,1008.7z"/>
				</g>
			</g>
		</g>
	</g>
</g>
</svg>
