<svg width="118" height="106" viewBox="0 0 118 106" fill="none" xmlns="http://www.w3.org/2000/svg">
<path fill-rule="evenodd" clip-rule="evenodd" d="M20.4622 43.4533C19.6312 42.4681 16.3675 38.5809 16.3675 38.5809C15.818 37.9248 15.8917 36.9408 16.5418 36.3804C17.1784 35.8132 18.1501 35.8884 18.6997 36.5444L21.2061 39.5308L24.061 32.9362C24.4027 32.1435 25.3074 31.7814 26.0781 32.1367C26.8622 32.4784 27.2107 33.4009 26.8689 34.1936C26.8689 34.1936 23.5088 41.9539 23.0356 43.0638C22.5624 44.1736 21.2932 44.4385 20.4622 43.4533Z" fill="white"/>
<path fill-rule="evenodd" clip-rule="evenodd" d="M75.4622 43.4533C74.6312 42.4681 71.3675 38.5809 71.3675 38.5809C70.818 37.9248 70.8917 36.9408 71.5418 36.3804C72.1784 35.8132 73.1501 35.8884 73.6997 36.5444L76.2061 39.5308L79.061 32.9362C79.4027 32.1435 80.3074 31.7814 81.0781 32.1367C81.8622 32.4784 82.2107 33.4009 81.8689 34.1936C81.8689 34.1936 78.5088 41.9539 78.0356 43.0638C77.5624 44.1736 76.2932 44.4385 75.4622 43.4533Z" fill="white"/>
<path fill-rule="evenodd" clip-rule="evenodd" d="M20.4622 59.4533C19.6312 58.4681 16.3675 54.5809 16.3675 54.5809C15.818 53.9248 15.8917 52.9408 16.5418 52.3804C17.1784 51.8132 18.1501 51.8884 18.6997 52.5444L21.2061 55.5308L24.061 48.9362C24.4027 48.1435 25.3074 47.7814 26.0781 48.1367C26.8622 48.4784 27.2107 49.4009 26.8689 50.1936C26.8689 50.1936 23.5088 57.9539 23.0356 59.0638C22.5624 60.1736 21.2932 60.4385 20.4622 59.4533Z" fill="white"/>
<path fill-rule="evenodd" clip-rule="evenodd" d="M20.4622 75.4533C19.6312 74.4681 16.3675 70.5809 16.3675 70.5809C15.818 69.9248 15.8917 68.9408 16.5418 68.3804C17.1784 67.8132 18.1501 67.8884 18.6997 68.5444L21.2061 71.5308L24.061 64.9362C24.4027 64.1435 25.3074 63.7814 26.0781 64.1367C26.8622 64.4784 27.2107 65.4009 26.8689 66.1936C26.8689 66.1936 23.5088 73.9539 23.0356 75.0638C22.5624 76.1736 21.2932 76.4385 20.4622 75.4533Z" fill="white"/>
<path fill-rule="evenodd" clip-rule="evenodd" d="M29 37.5919C29 38.4787 29.707 39.1979 30.5959 39.1979H45.176C46.0579 39.1979 46.7789 38.4787 46.7789 37.5919C46.7789 36.7122 46.0579 36 45.176 36H30.5959C29.707 36 29 36.7122 29 37.5919ZM29 42.5954C29 43.4752 29.707 44.1944 30.5959 44.1944H40.6473C41.5362 44.1944 42.2432 43.4752 42.2432 42.5954C42.2432 41.7087 41.5362 41.0035 40.6473 41.0035H30.5959C29.707 41.0035 29 41.7087 29 42.5954ZM30.5959 55.1944C29.707 55.1944 29 54.4752 29 53.5954C29 52.7087 29.707 52.0035 30.5959 52.0035H45.176C46.0579 52.0035 46.7789 52.7087 46.7789 53.5954C46.7789 54.4752 46.0579 55.1944 45.176 55.1944H30.5959ZM29 58.6024C29 59.4752 29.707 60.2014 30.5959 60.2014H45.176C46.0579 60.2014 46.7789 59.4752 46.7789 58.6024C46.7789 57.7157 46.0579 56.9965 45.176 56.9965H30.5959C29.707 56.9965 29 57.7157 29 58.6024ZM30.5959 71.1979C29.707 71.1979 29 70.4787 29 69.5919C29 68.7122 29.707 68 30.5959 68H45.176C46.0579 68 46.7789 68.7122 46.7789 69.5919C46.7789 70.4787 46.0579 71.1979 45.176 71.1979H30.5959ZM29 74.5954C29 75.4752 29.707 76.1944 30.5959 76.1944H40.6473C41.5362 76.1944 42.2432 75.4752 42.2432 74.5954C42.2432 73.7087 41.5362 73.0035 40.6473 73.0035H30.5959C29.707 73.0035 29 73.7087 29 74.5954Z" fill="#333333"/>
<path fill-rule="evenodd" clip-rule="evenodd" d="M84 37.5919C84 38.4787 84.707 39.1979 85.5959 39.1979H100.176C101.058 39.1979 101.779 38.4787 101.779 37.5919C101.779 36.7122 101.058 36 100.176 36H85.5959C84.707 36 84 36.7122 84 37.5919ZM84 42.5954C84 43.4752 84.707 44.1944 85.5959 44.1944H95.6473C96.5362 44.1944 97.2432 43.4752 97.2432 42.5954C97.2432 41.7087 96.5362 41.0035 95.6473 41.0035H85.5959C84.707 41.0035 84 41.7087 84 42.5954ZM85.5959 55.1944C84.707 55.1944 84 54.4752 84 53.5954C84 52.7087 84.707 52.0035 85.5959 52.0035H100.176C101.058 52.0035 101.779 52.7087 101.779 53.5954C101.779 54.4752 101.058 55.1944 100.176 55.1944H85.5959ZM84 58.6024C84 59.4752 84.707 60.2014 85.5959 60.2014H100.176C101.058 60.2014 101.779 59.4752 101.779 58.6024C101.779 57.7157 101.058 56.9965 100.176 56.9965H85.5959C84.707 56.9965 84 57.7157 84 58.6024ZM85.5959 71.1979C84.707 71.1979 84 70.4787 84 69.5919C84 68.7122 84.707 68 85.5959 68H100.176C101.058 68 101.779 68.7122 101.779 69.5919C101.779 70.4787 101.058 71.1979 100.176 71.1979H85.5959ZM84 74.5954C84 75.4752 84.707 76.1944 85.5959 76.1944H95.6473C96.5362 76.1944 97.2432 75.4752 97.2432 74.5954C97.2432 73.7087 96.5362 73.0035 95.6473 73.0035H85.5959C84.707 73.0035 84 73.7087 84 74.5954Z" fill="#333333"/>
<path fill-rule="evenodd" clip-rule="evenodd" d="M71.4393 75.8383C72.0251 76.4241 72.9749 76.4241 73.5607 75.8383L76.6388 72.7601L79.717 75.8383C80.3028 76.4241 81.2525 76.4241 81.8383 75.8383C82.4241 75.2525 82.4241 74.3028 81.8383 73.717L78.7601 70.6388L81.8383 67.5607C82.4241 66.9749 82.4241 66.0251 81.8383 65.4393C81.2525 64.8536 80.3028 64.8536 79.717 65.4393L76.6388 68.5175L73.5607 65.4393C72.9749 64.8536 72.0251 64.8536 71.4393 65.4393C70.8536 66.0251 70.8536 66.9749 71.4393 67.5607L74.5175 70.6388L71.4393 73.717C70.8536 74.3028 70.8536 75.2525 71.4393 75.8383Z" fill="white"/>
<path fill-rule="evenodd" clip-rule="evenodd" d="M71.4393 59.8383C72.0251 60.4241 72.9749 60.4241 73.5607 59.8383L76.6388 56.7601L79.717 59.8383C80.3028 60.4241 81.2525 60.4241 81.8383 59.8383C82.4241 59.2525 82.4241 58.3028 81.8383 57.717L78.7601 54.6388L81.8383 51.5607C82.4241 50.9749 82.4241 50.0251 81.8383 49.4393C81.2525 48.8536 80.3028 48.8536 79.717 49.4393L76.6388 52.5175L73.5607 49.4393C72.9749 48.8536 72.0251 48.8536 71.4393 49.4393C70.8536 50.0251 70.8536 50.9749 71.4393 51.5607L74.5175 54.6388L71.4393 57.717C70.8536 58.3028 70.8536 59.2525 71.4393 59.8383Z" fill="white"/>
<path d="M8.5 23C8.5 19.9624 10.9624 17.5 14 17.5H42.3787L54.5 29.6213V84C54.5 87.0376 52.0376 89.5 49 89.5H14C10.9624 89.5 8.5 87.0376 8.5 84V23Z" stroke="#333333" stroke-width="3"/>
<path d="M63.5 23C63.5 19.9624 65.9624 17.5 69 17.5H97.3787L109.5 29.6213V84C109.5 87.0376 107.038 89.5 104 89.5H69C65.9624 89.5 63.5 87.0376 63.5 84V23Z" stroke="#333333" stroke-width="3"/>
<path d="M56 32.2632H47C43.134 32.2632 40 29.1292 40 25.2632V16H43V25.2632C43 27.4723 44.7909 29.2632 47 29.2632H56V32.2632Z" fill="#333333"/>
<path d="M111 32.2632H102C98.134 32.2632 95 29.1292 95 25.2632V16H98V25.2632C98 27.4723 99.7909 29.2632 102 29.2632H111V32.2632Z" fill="#333333"/>
</svg>
