<svg width="118" height="106" viewBox="0 0 118 106" fill="none" xmlns="http://www.w3.org/2000/svg">
<path fill-rule="evenodd" clip-rule="evenodd" d="M72.6669 71.1317L72.6716 78.8779C72.5346 79.9846 72.003 80.5162 71.0769 80.4726C70.1507 80.429 69.6178 79.8961 69.4782 78.8739L69.4636 71.1278L67.5283 73.0631C66.9012 73.6901 65.8829 73.6889 65.2543 73.0603C64.6307 72.4367 64.6344 71.4233 65.2614 70.7963C67.9071 68.1507 69.4623 66.5954 69.9271 66.1306C70.6242 65.4335 71.3779 65.3202 72.1861 66.1285C72.725 66.6673 74.2874 68.2297 76.8733 70.8156C77.4969 71.4393 77.4932 72.4526 76.8711 73.0747C76.2441 73.7017 75.2357 73.7005 74.612 73.0769L72.6669 71.1317Z" fill="#333333"/>
<path fill-rule="evenodd" clip-rule="evenodd" d="M14 53C14 57.9706 18.0294 62 23 62C27.9706 62 32 57.9706 32 53C32 48.0294 27.9706 44 23 44C18.0294 44 14 48.0294 14 53ZM29 53C29 56.3137 26.3137 59 23 59C19.6863 59 17 56.3137 17 53C17 49.6863 19.6863 47 23 47C26.3137 47 29 49.6863 29 53Z" fill="#333333"/>
<path fill-rule="evenodd" clip-rule="evenodd" d="M38 53C38 57.9706 42.0294 62 47 62C51.9706 62 56 57.9706 56 53C56 48.0294 51.9706 44 47 44C42.0294 44 38 48.0294 38 53ZM53 53C53 56.3137 50.3137 59 47 59C43.6863 59 41 56.3137 41 53C41 49.6863 43.6863 47 47 47C50.3137 47 53 49.6863 53 53Z" fill="#333333"/>
<path fill-rule="evenodd" clip-rule="evenodd" d="M62 53C62 57.9706 66.0294 62 71 62C75.9706 62 80 57.9706 80 53C80 48.0294 75.9706 44 71 44C66.0294 44 62 48.0294 62 53ZM77 53C77 56.3137 74.3137 59 71 59C67.6863 59 65 56.3137 65 53C65 49.6863 67.6863 47 71 47C74.3137 47 77 49.6863 77 53Z" fill="white"/>
<path fill-rule="evenodd" clip-rule="evenodd" d="M86 53C86 57.9706 90.0294 62 95 62C99.9706 62 104 57.9706 104 53C104 48.0294 99.9706 44 95 44C90.0294 44 86 48.0294 86 53ZM101 53C101 56.3137 98.3137 59 95 59C91.6863 59 89 56.3137 89 53C89 49.6863 91.6863 47 95 47C98.3137 47 101 49.6863 101 53Z" fill="#333333"/>
</svg>
