<svg width="44" height="44" viewBox="0 0 44 44" fill="none" xmlns="http://www.w3.org/2000/svg">
<path d="M11.8425 9.13374C12.6831 9.13374 13.365 8.45338 13.365 7.61118V1.52255C13.3635 0.681927 12.6815 0 11.8425 0H11.0804C10.2398 0 9.55786 0.681927 9.55786 1.52255V7.61118C9.55786 8.45338 10.2398 9.13374 11.0804 9.13374H11.8425Z" fill="#f5c441"/>
<path d="M32.9178 9.13374C33.7584 9.13374 34.4404 8.45338 34.4404 7.61118V1.52255C34.4404 0.681927 33.7584 0 32.9178 0H32.1573C31.3167 0 30.6348 0.681927 30.6348 1.52255V7.61118C30.6348 8.45338 31.3167 9.13374 32.1573 9.13374H32.9178Z" fill="#f5c441"/>
<path d="M42.1711 4.10565H35.4602V7.61113C35.4602 9.01427 34.3195 10.155 32.9163 10.155H32.1558C30.7527 10.155 29.612 9.01427 29.612 7.61113V4.10565H14.3849V7.61113C14.3849 9.01427 13.2442 10.155 11.841 10.155H11.0805C9.67739 10.155 8.53666 9.01427 8.53666 7.61113V4.10565H1.82738C0.818627 4.10565 0 4.92428 0 5.93303V42.1694C0 43.1766 0.818627 43.9952 1.82738 43.9952H42.1726C43.1814 43.9952 44 43.1766 44 42.1694V5.93303C43.9984 4.92428 43.1798 4.10565 42.1711 4.10565ZM41.2581 41.255H2.74028V13.7218H41.2597V41.255H41.2581Z" fill="#f5c441"/>
<path d="M13.0634 20.5254H16.9821C17.3608 20.5254 17.6688 20.2174 17.6688 19.8388V16.8628C17.6688 16.4857 17.3608 16.1777 16.9821 16.1777H13.0634C12.6847 16.1777 12.3768 16.4857 12.3768 16.8628V19.8388C12.3768 20.2174 12.6832 20.5254 13.0634 20.5254Z" fill="#f5c441"/>
<path d="M20.1042 20.5254H23.9538C24.3325 20.5254 24.6389 20.2174 24.6389 19.8388V16.8628C24.6389 16.4857 24.3325 16.1777 23.9538 16.1777H20.1042C19.7255 16.1777 19.4191 16.4857 19.4191 16.8628V19.8388C19.4191 20.2174 19.7255 20.5254 20.1042 20.5254Z" fill="#f5c441"/>
<path d="M27.0806 20.5254H30.9302C31.3088 20.5254 31.6152 20.2174 31.6152 19.8388V16.8628C31.6152 16.4857 31.3088 16.1777 30.9302 16.1777H27.0806C26.7019 16.1777 26.3955 16.4857 26.3955 16.8628V19.8388C26.3955 20.2174 26.7035 20.5254 27.0806 20.5254Z" fill="#f5c441"/>
<path d="M34.0601 20.5254H37.9066C38.2853 20.5254 38.5932 20.2174 38.5932 19.8388V16.8628C38.5932 16.4857 38.2853 16.1777 37.9066 16.1777H34.0601C33.6815 16.1777 33.3751 16.4857 33.3751 16.8628V19.8388C33.3751 20.2174 33.6815 20.5254 34.0601 20.5254Z" fill="#f5c441"/>
<path d="M6.09179 26.614H9.93824C10.3169 26.614 10.6233 26.3092 10.6233 25.9273V22.953C10.6233 22.5758 10.3169 22.2679 9.93824 22.2679H6.09179C5.71312 22.2679 5.40515 22.5758 5.40515 22.953V25.9273C5.40515 26.3092 5.71312 26.614 6.09179 26.614Z" fill="#f5c441"/>
<path d="M13.0634 26.614H16.9821C17.3608 26.614 17.6688 26.3092 17.6688 25.9273V22.953C17.6688 22.5758 17.3608 22.2679 16.9821 22.2679H13.0634C12.6847 22.2679 12.3768 22.5758 12.3768 22.953V25.9273C12.3768 26.3092 12.6832 26.614 13.0634 26.614Z" fill="#f5c441"/>
<path d="M20.1042 26.614H23.9538C24.3325 26.614 24.6389 26.3092 24.6389 25.9273V22.953C24.6389 22.5758 24.3325 22.2679 23.9538 22.2679H20.1042C19.7255 22.2679 19.4191 22.5758 19.4191 22.953V25.9273C19.4191 26.3092 19.7255 26.614 20.1042 26.614Z" fill="#f5c441"/>
<path d="M27.0806 26.614H30.9302C31.3088 26.614 31.6152 26.3092 31.6152 25.9273V22.953C31.6152 22.5758 31.3088 22.2679 30.9302 22.2679H27.0806C26.7019 22.2679 26.3955 22.5758 26.3955 22.953V25.9273C26.3955 26.3092 26.7035 26.614 27.0806 26.614Z" fill="#f5c441"/>
<path d="M34.0601 26.614H37.9066C38.2853 26.614 38.5932 26.3092 38.5932 25.9273V22.953C38.5932 22.5743 38.2853 22.2679 37.9066 22.2679H34.0601C33.6815 22.2679 33.3751 22.5743 33.3751 22.953V25.9273C33.3751 26.3092 33.6815 26.614 34.0601 26.614Z" fill="#f5c441"/>
<path d="M6.09179 32.7074H9.93824C10.3169 32.7074 10.6233 32.401 10.6233 32.0223V29.0463C10.6233 28.6676 10.3169 28.3597 9.93824 28.3597H6.09179C5.71312 28.3597 5.40515 28.6661 5.40515 29.0463V32.0223C5.40515 32.401 5.71312 32.7074 6.09179 32.7074Z" fill="#f5c441"/>
<path d="M13.0634 32.7074H16.9821C17.3608 32.7074 17.6688 32.401 17.6688 32.0223V29.0463C17.6688 28.6676 17.3608 28.3597 16.9821 28.3597H13.0634C12.6847 28.3597 12.3768 28.6661 12.3768 29.0463V32.0223C12.3768 32.401 12.6832 32.7074 13.0634 32.7074Z" fill="#f5c441"/>
<path d="M20.1042 32.7074H23.9538C24.3325 32.7074 24.6389 32.401 24.6389 32.0223V29.0463C24.6389 28.6676 24.3325 28.3597 23.9538 28.3597H20.1042C19.7255 28.3597 19.4191 28.6661 19.4191 29.0463V32.0223C19.4191 32.401 19.7255 32.7074 20.1042 32.7074Z" fill="#f5c441"/>
<path d="M27.0524 32.7074H30.9004C31.2791 32.7074 31.5855 32.401 31.5855 32.0223V29.0463C31.5855 28.6676 31.2791 28.3597 30.9004 28.3597H27.0524C26.6737 28.3597 26.3673 28.6661 26.3673 29.0463V32.0223C26.3673 32.401 26.6737 32.7074 27.0524 32.7074Z" fill="#f5c441"/>
<path d="M34.0303 32.7074H37.8767C38.2554 32.7074 38.5618 32.401 38.5618 32.0223V29.0463C38.5618 28.6676 38.2554 28.3597 37.8767 28.3597H34.0303C33.6516 28.3597 33.3436 28.6661 33.3436 29.0463V32.0223C33.3452 32.401 33.6532 32.7074 34.0303 32.7074Z" fill="#f5c441"/>
<path d="M6.09179 38.7991H9.93824C10.3169 38.7991 10.6233 38.4927 10.6233 38.1125V35.1396C10.6233 34.7594 10.3169 34.453 9.93824 34.453H6.09179C5.71312 34.453 5.40515 34.7578 5.40515 35.1396V38.1125C5.40515 38.4927 5.71312 38.7991 6.09179 38.7991Z" fill="#f5c441"/>
<path d="M13.0634 38.7991H16.9821C17.3608 38.7991 17.6688 38.4927 17.6688 38.1125V35.1396C17.6688 34.7594 17.3608 34.453 16.9821 34.453H13.0634C12.6847 34.453 12.3768 34.7578 12.3768 35.1396V38.1125C12.3768 38.4927 12.6832 38.7991 13.0634 38.7991Z" fill="#f5c441"/>
<path d="M20.1042 38.7991H23.9538C24.3325 38.7991 24.6389 38.4927 24.6389 38.1125V35.1396C24.6389 34.7594 24.3325 34.453 23.9538 34.453H20.1042C19.7255 34.453 19.4191 34.7578 19.4191 35.1396V38.1125C19.4191 38.4927 19.7255 38.7991 20.1042 38.7991Z" fill="#f5c441"/>
<path d="M30.9302 34.4562H27.0806C26.7019 34.4562 26.3955 34.761 26.3955 35.1428V38.1156C26.3955 38.4943 26.7019 38.8023 27.0806 38.8023H30.9302C31.3088 38.8023 31.6152 38.4959 31.6152 38.1156V35.1428C31.6152 34.761 31.3088 34.4562 30.9302 34.4562Z" fill="#f5c441"/>
</svg>
