<svg width="39" height="44" viewBox="0 0 39 44" fill="none" xmlns="http://www.w3.org/2000/svg">
<path fill-rule="evenodd" clip-rule="evenodd" d="M8.296 15.92V4.30562C8.30258 3.74256 8.19737 3.18379 7.98644 2.66169C7.77551 2.13959 7.46307 1.66453 7.06722 1.26406C6.67137 0.863576 6.19999 0.545634 5.68037 0.328652C5.16076 0.11167 4.60325 -3.84958e-05 4.04015 9.95126e-09C2.95883 0.0281237 1.93127 0.477528 1.17655 1.2524C0.42182 2.02727 -0.000365195 3.06631 2.37033e-07 4.148V14.2608C2.37033e-07 14.7009 0.174809 15.1229 0.485969 15.434C0.797129 15.7452 1.21915 15.92 1.6592 15.92H8.296ZM38.3275 43.1392V4.148C38.3275 3.04788 37.8905 1.99282 37.1126 1.21492C36.3347 0.43702 35.2796 9.95126e-09 34.1795 9.95126e-09H9.39936C10.3349 1.16408 10.8443 2.61309 10.8429 4.10652V43.1558L12.5021 41.6376C12.7302 41.4335 13.0256 41.3207 13.3317 41.3207C13.6378 41.3207 13.9331 41.4335 14.1613 41.6376L16.5173 43.7863C16.6698 43.9238 16.8678 44 17.0732 44C17.2785 44 17.4766 43.9238 17.629 43.7863L19.9933 41.6376C20.2215 41.4335 20.5169 41.3207 20.8229 41.3207C21.129 41.3207 21.4244 41.4335 21.6525 41.6376L23.9837 43.7863C24.1362 43.9238 24.3342 44 24.5396 44C24.7449 44 24.9429 43.9238 25.0954 43.7863L27.4597 41.6376C27.6865 41.4304 27.9822 41.3151 28.2893 41.3141C28.5962 41.3167 28.8914 41.4318 29.1189 41.6376L31.5331 43.7614C31.6855 43.899 31.8836 43.9751 32.0889 43.9751C32.2943 43.9751 32.4923 43.899 32.6447 43.7614L35.0091 41.6127C35.2373 41.4086 35.5326 41.2958 35.8387 41.2958C36.1448 41.2958 36.4402 41.4086 36.6683 41.6127L38.3275 43.1392ZM14.0197 7.18488C13.7863 6.95151 13.6552 6.63499 13.6552 6.30496C13.6552 5.97492 13.7863 5.6584 14.0197 5.42503C14.2531 5.19166 14.5696 5.06056 14.8996 5.06056H28.0405C28.3705 5.06056 28.687 5.19166 28.9204 5.42503C29.1538 5.6584 29.2849 5.97492 29.2849 6.30496C29.2849 6.63499 29.1538 6.95151 28.9204 7.18488C28.687 7.41825 28.3705 7.54936 28.0405 7.54936H14.8996C14.5696 7.54936 14.2531 7.41825 14.0197 7.18488ZM14.0221 13.056C13.7892 12.8231 13.6574 12.5079 13.6552 12.1785C13.6552 11.8485 13.7863 11.532 14.0197 11.2986C14.2531 11.0652 14.5696 10.9341 14.8996 10.9341H28.0405C28.3705 10.9341 28.687 11.0652 28.9204 11.2986C29.1538 11.532 29.2849 11.8485 29.2849 12.1785C29.2849 12.5086 29.1538 12.8251 28.9204 13.0584C28.687 13.2918 28.3705 13.4229 28.0405 13.4229H14.8996C14.5702 13.4207 14.255 13.2889 14.0221 13.056ZM28.9204 18.9237C28.687 19.1571 28.3705 19.2882 28.0405 19.2882H14.8996C14.5696 19.2882 14.2531 19.1571 14.0197 18.9237C13.7863 18.6903 13.6552 18.3738 13.6552 18.0438C13.6552 17.7138 13.7863 17.3972 14.0197 17.1639C14.2531 16.9305 14.5696 16.7994 14.8996 16.7994H28.0405C28.3705 16.7994 28.687 16.9305 28.9204 17.1639C29.1538 17.3972 29.2849 17.7138 29.2849 18.0438C29.2849 18.3738 29.1538 18.6903 28.9204 18.9237ZM35.0843 17.1639C35.3177 17.3972 35.4488 17.7138 35.4488 18.0438C35.4488 18.3738 35.3177 18.6903 35.0843 18.9237C34.8509 19.1571 34.5344 19.2882 34.2044 19.2882H32.7111C32.3811 19.2882 32.0646 19.1571 31.8312 18.9237C31.5978 18.6903 31.4667 18.3738 31.4667 18.0438C31.4667 17.7138 31.5978 17.3972 31.8312 17.1639C32.0646 16.9305 32.3811 16.7994 32.7111 16.7994H34.2044C34.5344 16.7994 34.8509 16.9305 35.0843 17.1639ZM35.0843 11.2986C35.3177 11.532 35.4488 11.8485 35.4488 12.1785C35.4488 12.5086 35.3177 12.8251 35.0843 13.0584C34.8509 13.2918 34.5344 13.4229 34.2044 13.4229H32.7111C32.3811 13.4229 32.0646 13.2918 31.8312 13.0584C31.5978 12.8251 31.4667 12.5086 31.4667 12.1785C31.4667 11.8485 31.5978 11.532 31.8312 11.2986C32.0646 11.0652 32.3811 10.9341 32.7111 10.9341H34.2044C34.5344 10.9341 34.8509 11.0652 35.0843 11.2986ZM35.0843 5.42503C35.3177 5.6584 35.4488 5.97492 35.4488 6.30496C35.4488 6.63499 35.3177 6.95151 35.0843 7.18488C34.8509 7.41825 34.5344 7.54936 34.2044 7.54936H32.7111C32.3811 7.54936 32.0646 7.41825 31.8312 7.18488C31.5978 6.95151 31.4667 6.63499 31.4667 6.30496C31.4667 5.97492 31.5978 5.6584 31.8312 5.42503C32.0646 5.19166 32.3811 5.06056 32.7111 5.06056H34.2044C34.5344 5.06056 34.8509 5.19166 35.0843 5.42503ZM32.1594 25.0689C33.4457 25.2266 34.5326 25.6822 35.529 26.3481L34.3152 28.3984C33.5906 27.9252 32.8116 27.5572 32.0688 27.3645V30.028C34.8225 30.7465 36 31.8154 36 33.778V33.8131C36 35.7757 34.442 37.0374 32.1594 37.2652V39H30.2754V37.2301C28.7174 37.0374 27.1957 36.4416 26 35.5654L27.413 33.5678C28.3913 34.2862 29.2971 34.7769 30.3659 34.9871V32.2009C27.7572 31.5175 26.471 30.5713 26.471 28.486V28.4509C26.471 26.5234 27.9928 25.2442 30.2754 25.0164V24H32.1594V25.0689ZM33.3551 33.9533V33.9182C33.3551 33.34 33.0471 32.972 32.0688 32.6215V35.0748C32.9203 34.9521 33.3551 34.5841 33.3551 33.9533ZM29.1159 28.2932V28.3283C29.1159 28.889 29.3696 29.2395 30.3659 29.59V27.2068C29.4783 27.3119 29.1159 27.7325 29.1159 28.2932Z" fill="#f5c441"/>
</svg>
