<svg width="118" height="106" viewBox="0 0 118 106" fill="none" xmlns="http://www.w3.org/2000/svg">
<path fill-rule="evenodd" clip-rule="evenodd" d="M64.8271 21.4438C65.4019 24.7212 66.243 30.7544 65.3248 33.63C63.6495 38.8315 59.8505 43.5326 56.5 47.6769C54.1729 50.5596 51.5304 53.8229 51.5304 55.3312V84.017L52.2033 84.6866H89.3598L89.479 84.6795C91.8131 84.454 93.5094 82.5721 93.5094 80.2956C93.5094 79.5626 93.3201 78.8296 92.9626 78.167L92.8925 76.2429C93.1799 75.6227 93.7337 75.1786 94.3925 75.0306C96.3972 74.6077 97.8481 72.7964 97.8481 70.7383C97.8481 69.6247 97.4346 68.5534 96.6566 67.7358L96.0888 66.0725L96.951 64.5289C98.0724 63.6973 98.7173 62.4075 98.7173 61.0049C98.7173 59.6164 98.0724 58.3336 96.958 57.4949C96.4182 57.0861 96.0958 56.4448 96.0958 55.7752C96.0958 55.0915 96.4182 54.4501 96.958 54.0554C98.0724 53.2026 98.7173 51.9269 98.7173 50.5314C98.7173 48.3747 97.1823 46.5492 95.0584 46.1968L94.9112 46.1686L94.6098 46.1404H75.1519C74.479 46.1404 73.8552 45.8232 73.4416 45.2805C73.0351 44.7449 72.9089 44.0542 73.0911 43.4057C73.5608 41.7212 74.6052 37.2386 74.1355 31.9173C73.5257 25.0947 70.5397 21.4297 67.9112 21.3169C66.5724 21.2606 65.5491 21.3381 64.8271 21.4438ZM89.3598 89H52.2033C49.4696 89 47.2477 86.7587 47.2477 84.017V55.3312C47.2477 52.3005 49.8622 49.0654 53.1776 44.9704C56.2897 41.1151 59.8224 36.7523 61.2524 32.312C61.8622 30.3949 61.0421 24.1644 60.271 20.3373C60.0958 19.4562 60.4813 18.5541 61.2594 18.0819C61.708 17.7999 63.5584 16.8343 68.0795 17.0246C73.4907 17.2361 77.6402 23.0649 78.3902 31.5226C78.7617 35.6105 78.3552 39.2262 77.8505 41.834H94.6098L95.8154 41.9679C99.979 42.6868 103 46.2743 103 50.5314C103 52.4626 102.383 54.281 101.255 55.7752C102.383 57.2623 103 59.0807 103 61.0049C103 63.0206 102.292 64.9659 101.03 66.5024C101.759 67.7922 102.138 69.2441 102.138 70.7383C102.138 73.9805 100.315 76.8984 97.5748 78.3926C97.722 79.0199 97.7921 79.6542 97.7921 80.2956C97.7921 84.8064 94.4276 88.5278 89.9696 88.9577L89.3598 89Z" fill="#333333"/>
<path fill-rule="evenodd" clip-rule="evenodd" d="M21.1729 53.2943L20.2757 54.1964V83.7915L21.1729 84.6866H38.0864L38.9836 83.7915V54.1964L38.0864 53.2943H21.1729ZM38.0864 89H21.1729C18.3201 89 16 86.6671 16 83.7915V54.1964C16 51.3278 18.3201 48.9949 21.1729 48.9949H38.0864C40.9393 48.9949 43.2664 51.3278 43.2664 54.1964V83.7915C43.2664 86.6671 40.9393 89 38.0864 89Z" fill="#08B7F8"/>
<path fill-rule="evenodd" clip-rule="evenodd" d="M29.6332 73.2474C28.4205 73.2474 27.4392 74.2342 27.4392 75.4465C27.4392 76.6587 28.4205 77.6384 29.6332 77.6384C30.8388 77.6384 31.8131 76.6587 31.8131 75.4465C31.8131 74.2342 30.8388 73.2474 29.6332 73.2474ZM29.6332 80.8665C26.6542 80.8665 24.236 78.4419 24.236 75.4465C24.236 72.451 26.6542 70.0194 29.6332 70.0194C32.6051 70.0194 35.0304 72.451 35.0304 75.4465C35.0304 78.4419 32.6051 80.8665 29.6332 80.8665Z" fill="#08B7F8"/>
</svg>
