<svg width="40" height="40" viewBox="0 0 40 40" fill="none" xmlns="http://www.w3.org/2000/svg" focusable="false"><path fill-rule="evenodd" clip-rule="evenodd" d="M20 3.25c-9.25 0-16.75 7.5-16.75 16.75S10.75 36.75 20 36.75 36.75 29.25 36.75 20 29.25 3.25 20 3.25zM.75 20C.75 9.369 9.369.75 20 .75S39.25 9.369 39.25 20 30.631 39.25 20 39.25.75 30.631.75 20z" fill="url(#djch8bldc7g0vhcq2ap52a)"></path><path fill-rule="evenodd" clip-rule="evenodd" d="M9.75 20c0-.69.56-1.25 1.25-1.25h18a1.25 1.25 0 110 2.5H11c-.69 0-1.25-.56-1.25-1.25z" fill="url(#i7xifvwjqah01onnj4aaq9d)"></path><defs><linearGradient id="djch8bldc7g0vhcq2ap52a" x1=".75" y1=".75" x2="39.25" y2="39.25" gradientUnits="userSpaceOnUse"><stop stop-color="#08B7F8"></stop><stop offset="1" stop-color="#08B7F8"></stop></linearGradient><linearGradient id="i7xifvwjqah01onnj4aaq9d" x1=".75" y1=".75" x2="39.25" y2="39.25" gradientUnits="userSpaceOnUse"><stop stop-color="#08B7F8"></stop><stop offset="1" stop-color="#08B7F8"></stop></linearGradient></defs></svg>