<svg width="16" height="16" viewBox="0 0 16 16" fill="none" xmlns="http://www.w3.org/2000/svg" focusable="false"><path fill-rule="evenodd" clip-rule="evenodd" d="M8.76 4.404l6.93 6.929a.538.538 0 01-.381.918h-2.144L8.76 7.847a1.076 1.076 0 00-1.522 0l-4.404 4.404H.691c-.48 0-.72-.58-.38-.918l6.928-6.929c.42-.42 1.102-.42 1.522 0zm3.221.1a.538.538 0 00-.538.538v.323l2.582 2.582V5.042a.538.538 0 00-.538-.538h-1.506z" fill="url(#qiygozfhzmh0jhtru8efd5c)"></path><defs><linearGradient id="qiygozfhzmh0jhtru8efd5c" x1=".152" y1="4.089" x2="6.834" y2="16.939" gradientUnits="userSpaceOnUse"><stop stop-color="#f5c441"></stop><stop offset="1" stop-color="#f5c441"></stop></linearGradient></defs></svg>