<svg width="16" height="16" viewBox="0 0 16 16" fill="none" xmlns="http://www.w3.org/2000/svg" focusable="false"><path fill-rule="evenodd" clip-rule="evenodd" d="M8.649 7.688c0-1.74-1.28-3.18-2.95-3.433A3.723 3.723 0 019.393.992h.248a3.97 3.97 0 013.97 3.968v10.544a.496.496 0 00.994 0V4.96c0-2.74-2.223-4.96-4.964-4.96h-.248A4.715 4.715 0 004.7 4.248a3.474 3.474 0 00-3 3.44v.992c0 .548.444.992.992.992h4.964a.992.992 0 00.993-.992v-.992z" fill="url(#f9jzjzade5m0l5p88a6kjz)"></path><path d="M5.174 10.665a.496.496 0 00-.496.496v2.976a.496.496 0 00.993 0V11.16a.496.496 0 00-.497-.496z" fill="url(#xyzroymezwi0pzhqerxhgcq)"></path><path d="M7.224 10.7a.496.496 0 00-.277.645l.993 2.48a.496.496 0 00.922-.368l-.993-2.48a.497.497 0 00-.645-.277z" fill="url(#d8yttcg3cta0w2o50m0waq)"></path><path d="M2.16 13.825l.993-2.48a.487.487 0 00-.276-.645.488.488 0 00-.645.276l-.993 2.48a.487.487 0 00.276.645.487.487 0 00.645-.276z" fill="url(#w6vc101t2ec0gdqcx3f9kfi)"></path><defs><linearGradient id="f9jzjzade5m0l5p88a6kjz" x1="1.2" y1="0" x2="16.953" y2="13.198" gradientUnits="userSpaceOnUse"><stop stop-color="#f5c441"></stop><stop offset="1" stop-color="#f5c441"></stop></linearGradient><linearGradient id="xyzroymezwi0pzhqerxhgcq" x1="1.2" y1="0" x2="16.953" y2="13.198" gradientUnits="userSpaceOnUse"><stop stop-color="#f5c441"></stop><stop offset="1" stop-color="#f5c441"></stop></linearGradient><linearGradient id="d8yttcg3cta0w2o50m0waq" x1="1.2" y1="0" x2="16.953" y2="13.198" gradientUnits="userSpaceOnUse"><stop stop-color="#f5c441"></stop><stop offset="1" stop-color="#f5c441"></stop></linearGradient><linearGradient id="w6vc101t2ec0gdqcx3f9kfi" x1="1.2" y1="0" x2="16.953" y2="13.198" gradientUnits="userSpaceOnUse"><stop stop-color="#f5c441"></stop><stop offset="1" stop-color="#f5c441"></stop></linearGradient></defs></svg>