<svg width="16" height="16" viewBox="0 0 16 16" fill="none" xmlns="http://www.w3.org/2000/svg" focusable="false"><path fill-rule="evenodd" clip-rule="evenodd" d="M1.207 8.8H2.4v5.9a.5.5 0 00.5.5h3a.5.5 0 00.5-.5v-4.6a.5.5 0 01.5-.5h2.2a.5.5 0 01.5.5v4.6a.5.5 0 00.5.5h3a.5.5 0 00.5-.5V8.8h1.193a.5.5 0 00.353-.854L12.8 5.6V2.9a.5.5 0 00-.5-.5h-1.4a.5.5 0 00-.5.5v.3L8.707 1.507a1 1 0 00-1.414 0l-6.44 6.44a.5.5 0 00.354.853z" fill="url(#fkmbeli6mom0j2ttf71zq5r)"></path><defs><linearGradient id="fkmbeli6mom0j2ttf71zq5r" x1=".706" y1="1.214" x2="14.679" y2="15.789" gradientUnits="userSpaceOnUse"><stop stop-color="#08B7F8"></stop><stop offset="1" stop-color="#08B7F8"></stop></linearGradient></defs></svg>