<svg width="40" height="41" viewBox="0 0 40 41" fill="none" xmlns="http://www.w3.org/2000/svg" focusable="false"><g clip-path="url(#o57kx1xoip0jwmgu41r7c8)"><path d="M10.59 23.032h18.82c.377 0 .73.182.952.488l9.41 13.045c.566.784.011 1.884-.95 1.884H1.178c-.961 0-1.516-1.1-.95-1.884l9.41-13.045c.221-.306.575-.488.951-.488zm3.892 13.045h11.036l-1.444-5.337h-8.148l-1.444 5.337zm14.33-10.673h-3.743l.802 2.965h5.08l-2.14-2.965zm-6.181 0h-5.262l-.802 2.965h6.866l-.802-2.965zm-7.7 0h-3.743L9.05 28.369h5.08l.802-2.965zm13.026 10.673h8.554l-3.85-5.337h-6.148l1.444 5.337zM7.338 30.74l-3.85 5.337h8.555l1.444-5.337H7.338zm23.25-11.266c0 .655-.527 1.186-1.177 1.186s-1.177-.53-1.177-1.186c0-4.584-3.686-8.3-8.234-8.3s-8.234 3.716-8.234 8.3c0 .655-.527 1.186-1.177 1.186s-1.176-.53-1.176-1.186c0-5.894 4.74-10.673 10.587-10.673 5.847 0 10.587 4.779 10.587 10.673zm-9.412-14.23c0 .655-.526 1.185-1.176 1.185-.65 0-1.176-.53-1.176-1.185V1.686C18.824 1.03 19.35.5 20 .5c.65 0 1.176.53 1.176 1.186v3.558zm9.637 5.006a1.17 1.17 0 01-1.663 0 1.193 1.193 0 010-1.677l2.495-2.516a1.17 1.17 0 011.664 0c.46.464.46 1.214 0 1.678l-2.496 2.515zm3.303 10.41c-.65 0-1.176-.53-1.176-1.186 0-.655.527-1.186 1.176-1.186h3.53c.649 0 1.175.531 1.175 1.186 0 .655-.526 1.186-1.176 1.186h-3.529zM5.884 18.288c.65 0 1.176.531 1.176 1.186 0 .655-.526 1.186-1.176 1.186h-3.53c-.649 0-1.176-.53-1.176-1.186 0-.655.527-1.186 1.177-1.186h3.529zm4.966-9.715c.46.463.46 1.214 0 1.677a1.17 1.17 0 01-1.663 0L6.69 7.735a1.193 1.193 0 010-1.678 1.17 1.17 0 011.664 0l2.495 2.516z" fill="url(#g2fn5bcu2hm0ow3p1r4b3)"></path></g><defs><linearGradient id="g2fn5bcu2hm0ow3p1r4b3" x1="0" y1=".5" x2="37.896" y2="40.445" gradientUnits="userSpaceOnUse"><stop stop-color="#08B7F8"></stop><stop offset="1" stop-color="#08B7F8"></stop></linearGradient><clipPath id="o57kx1xoip0jwmgu41r7c8"><path fill="#fff" transform="translate(0 .5)" d="M0 0h40v40H0z"></path></clipPath></defs></svg>