<svg width="20" height="20" viewBox="0 0 20 20" fill="none" xmlns="http://www.w3.org/2000/svg" focusable="false"><path fill-rule="evenodd" clip-rule="evenodd" d="M3.5 0a1 1 0 00-1 1v18a1 1 0 001 1H17a1 1 0 001-1V4.414a1 1 0 00-.293-.707L14.293.293A1 1 0 0013.586 0H3.5zm7.418 4.46c1.152.144 2.112.56 3.008 1.216L13.03 7.18c-.704-.512-1.44-.88-2.176-1.04v3.072c2.432.608 3.472 1.568 3.472 3.28v.032c0 1.744-1.376 2.912-3.408 3.104v1.568H9.526v-1.6a7.375 7.375 0 01-3.776-1.584l1.024-1.472c.912.752 1.776 1.232 2.816 1.408v-3.152c-2.336-.608-3.424-1.472-3.424-3.28v-.032c0-1.712 1.36-2.88 3.36-3.056V3.5h1.392v.96zm1.52 8.176v-.032c0-.704-.352-1.136-1.584-1.504v2.912c1.024-.112 1.584-.608 1.584-1.376zM8.054 7.372v.016c0 .672.304 1.104 1.536 1.488V6.044c-1.024.096-1.536.624-1.536 1.328z" fill="url(#ijhvbho2jxa0igskgpbnjt)"></path><defs><linearGradient id="ijhvbho2jxa0igskgpbnjt" x1="2.5" y1="0" x2="21.867" y2="15.01" gradientUnits="userSpaceOnUse"><stop stop-color="#f5c441"></stop><stop offset="1" stop-color="#f5c441"></stop></linearGradient></defs></svg>