<svg width="20" height="20" viewBox="0 0 20 20" fill="none" xmlns="http://www.w3.org/2000/svg" focusable="false"><path fill-rule="evenodd" clip-rule="evenodd" d="M10.193 0C6.148 0 2.857 3.292 2.857 7.34c0 3.931 6.74 12.168 7.028 12.515a.394.394 0 00.308.145c.12 0 .232-.052.308-.144.287-.348 7.032-8.584 7.032-12.515C17.532 3.292 14.24 0 10.193 0zm0 10.736A3.4 3.4 0 016.797 7.34a3.4 3.4 0 013.396-3.396 3.4 3.4 0 013.396 3.396 3.401 3.401 0 01-3.396 3.396z" fill="url(#k2cvbewj6590rqsgprlb84)"></path><defs><linearGradient id="k2cvbewj6590rqsgprlb84" x1="2.857" y1="0" x2="21.936" y2="14" gradientUnits="userSpaceOnUse"><stop stop-color="#f5c441"></stop><stop offset="1" stop-color="#f5c441"></stop></linearGradient></defs></svg>