<svg width="16" height="16" viewBox="0 0 16 16" fill="none" xmlns="http://www.w3.org/2000/svg" focusable="false"><path fill-rule="evenodd" clip-rule="evenodd" d="M6.08 5.508A4.794 4.794 0 0110.88.72c2.65 0 4.8 2.142 4.8 4.788a4.794 4.794 0 01-4.8 4.787c-.384 0-.758-.045-1.117-.13L7.98 11.95a.48.48 0 01-.34.14H6.32v1.315a.48.48 0 01-.48.48H4.7v1.136a.48.48 0 01-.455.479l-3.42.18a.48.48 0 01-.505-.48v-2.333a.48.48 0 01.143-.342l5.796-5.717a4.78 4.78 0 01-.179-1.3zm5.68-1.698c0-.427.348-.776.78-.776.432 0 .78.349.78.776a.778.778 0 01-.78.777.778.778 0 01-.78-.777z" fill="url(#bb72pmyrnp70cnjulmapkgb)"></path><defs><linearGradient id="bb72pmyrnp70cnjulmapkgb" x1=".32" y1=".72" x2="15.275" y2="16.075" gradientUnits="userSpaceOnUse"><stop stop-color="#f5c441"></stop><stop offset="1" stop-color="#f5c441"></stop></linearGradient></defs></svg>