<svg width="118" height="106" viewBox="0 0 118 106" fill="none" xmlns="http://www.w3.org/2000/svg">
<path d="M27.418 52.3437L20.418 59.3437C19.9805 59.7812 19.4336 60 18.9961 60C18.5586 60 17.9023 59.7812 17.5742 59.3437L10.5742 52.3437C9.80859 51.5781 9.80859 50.2656 10.5742 49.3906C11.3398 48.625 12.6523 48.625 13.5273 49.3906L16.918 52.7812C16.918 29.7031 35.7305 11 58.8086 11C59.9023 11 60.8867 11.875 60.8867 13.0781C60.8867 13.2969 60.8867 13.5156 60.7773 13.625C60.5586 14.5 59.793 15.1562 58.8086 15.1562C38.0273 15.1562 21.0742 32.1094 21.0742 52.8906L24.5742 49.3906C25.3398 48.625 26.6523 48.625 27.5273 49.3906C28.293 50.2656 28.293 51.5781 27.418 52.3437ZM106.715 53.6563L99.7148 46.6562C98.9492 45.8906 97.6367 45.8906 96.7617 46.6562L89.7617 53.6563C88.9961 54.4219 88.9961 55.7344 89.7617 56.6094C90.1992 57.0469 90.7461 57.2656 91.1836 57.2656C91.6211 57.2656 92.2773 57.0469 92.6055 56.6094L96.1055 53.1094C96.1055 73.8906 79.1524 90.8438 58.3711 90.8438C57.2773 90.8438 56.293 91.7188 56.293 92.9219C56.293 94.125 57.168 95 58.3711 95C81.4492 95 100.262 76.2969 100.262 53.2188L103.652 56.6094C104.09 57.0469 104.637 57.2656 105.074 57.2656C105.512 57.2656 106.168 57.0469 106.496 56.6094C107.48 55.7344 107.48 54.4219 106.715 53.6563Z" fill="#333333"/>
<path d="M66.5742 16.0313C66.6836 16.0313 66.9023 16.0313 67.0117 16.0313C67.9961 16.0313 68.8711 15.375 68.9804 14.3906C69.1992 13.2969 68.5429 12.2031 67.3398 11.9844C66.2461 11.7656 65.1523 12.4219 64.9336 13.625C64.7148 14.7188 65.3711 15.8125 66.5742 16.0313ZM80.7929 22.2656C81.1211 22.4844 81.5586 22.7031 81.9961 22.7031C82.6523 22.7031 83.3086 22.375 83.6367 21.8281C84.2929 20.8438 84.0742 19.6406 83.1992 18.9844C82.2148 18.3281 81.0117 18.5469 80.3554 19.4219C79.5898 20.4063 79.8086 21.6094 80.7929 22.2656ZM88.1211 28.1719C88.6679 28.1719 89.1055 27.9531 89.543 27.625C90.418 26.8594 90.4179 25.5469 89.6523 24.6719C88.8867 23.7969 87.5742 23.7969 86.6992 24.5625C85.8242 25.3281 85.8242 26.6406 86.5898 27.5156C87.0273 27.9531 87.5742 28.1719 88.1211 28.1719ZM94.5742 40.8594C94.9023 41.7344 95.6679 42.2813 96.5429 42.2813C96.7617 42.2813 96.9805 42.2813 97.1992 42.1719C98.293 41.8438 98.8398 40.6406 98.5117 39.5469C98.1836 38.4531 96.9804 37.9063 95.8867 38.2344C94.7929 38.6719 94.1367 39.875 94.5742 40.8594ZM23.2617 66.0156C22.8242 64.9219 21.7304 64.375 20.6367 64.8125C19.5429 65.25 18.9961 66.3438 19.4336 67.4375C19.7617 68.3125 20.5273 68.75 21.4023 68.75C21.6211 68.75 21.8398 68.75 22.1679 68.6406C23.1523 68.2031 23.6992 67 23.2617 66.0156ZM93.0429 34.8438C93.3711 34.8438 93.8086 34.7344 94.1367 34.5156C95.1211 33.9688 95.4492 32.6563 94.9023 31.6719C94.3554 30.6875 93.0429 30.3594 92.0586 30.9063C91.0742 31.4531 90.7461 32.7656 91.2929 33.75C91.6211 34.4063 92.3867 34.8438 93.0429 34.8438ZM74.0117 18.4375C74.2305 18.5469 74.5586 18.6563 74.8867 18.6563C75.6523 18.6563 76.418 18.2188 76.7461 17.4531C77.1836 16.3594 76.7461 15.1563 75.6523 14.7188C74.5586 14.2813 73.3555 14.7188 72.918 15.8125C72.4805 16.6875 72.918 18 74.0117 18.4375ZM44.4804 87.8906C43.3867 87.4531 42.1836 88 41.7461 88.9844C41.3086 90.0781 41.8554 91.2813 42.8398 91.7188C43.0586 91.8281 43.3867 91.8282 43.6054 91.8282C44.3711 91.8282 45.2461 91.3906 45.4648 90.5156C46.0117 89.5313 45.5742 88.3281 44.4804 87.8906ZM52.0273 90.0781C50.9336 89.8594 49.8398 90.625 49.6211 91.7188C49.4023 92.8125 50.1679 93.9063 51.2617 94.125C51.3711 94.125 51.4805 94.125 51.5898 94.125C52.5742 94.125 53.4492 93.4688 53.6679 92.375C53.8867 91.3907 53.1211 90.2969 52.0273 90.0781ZM28.6211 79.1406C27.7461 79.9063 27.7461 81.2188 28.5117 82.0938C28.9492 82.5313 29.4961 82.75 30.0429 82.75C30.5898 82.75 31.0273 82.5313 31.4648 82.2032C32.3398 81.4375 32.3398 80.125 31.4648 79.25C30.8086 78.375 29.4961 78.2656 28.6211 79.1406ZM23.9179 72.3594C22.9336 73.0157 22.6054 74.2188 23.2617 75.2031C23.6992 75.8594 24.3554 76.1875 25.0117 76.1875C25.3398 76.1875 25.7773 76.0781 26.1054 75.8594C27.0898 75.2031 27.3086 74 26.7617 73.0156C26.1054 72.0313 24.9023 71.7032 23.9179 72.3594ZM37.5898 84.1719C36.6054 83.5156 35.4023 83.7344 34.7461 84.7188C34.0898 85.7031 34.3086 86.9063 35.2929 87.5625C35.6211 87.7813 36.0586 87.8906 36.4961 87.8906C37.1523 87.8906 37.8086 87.5625 38.2461 87.0157C38.7929 86.1407 38.4648 84.8281 37.5898 84.1719Z" fill="#08B7F8"/>
<path d="M56.5117 76.2969C56.5117 77.3906 57.3867 78.375 58.5898 78.375C59.6836 78.375 60.668 77.5 60.668 76.2969V70.7188H61.9805H62.0898H62.1992C67.668 70.7188 72.1523 66.2344 72.1523 60.7656C72.1523 55.2969 67.668 50.8125 62.1992 50.8125H60.668V40.3125V39.1094H67.668C68.7617 39.1094 69.7461 38.2344 69.7461 37.0312C69.7461 35.9375 68.8711 34.9531 67.668 34.9531H60.668V29.4844C60.668 28.3906 59.793 27.4062 58.5898 27.4062C57.4961 27.4062 56.5117 28.2812 56.5117 29.4844V34.9531H54.9805C49.5117 34.9531 45.0273 39.4375 45.0273 44.9063C45.0273 50.375 49.5117 54.8594 54.9805 54.8594H56.5117V65.1406V66.4531H49.293C48.1992 66.4531 47.2148 67.3281 47.2148 68.5313C47.2148 69.625 48.0898 70.6094 49.293 70.6094H56.5117V76.2969ZM60.668 65.3594V55.0781H62.1992C65.3711 55.0781 67.9961 57.7031 67.9961 60.875C67.9961 64.0469 65.3711 66.6719 62.1992 66.6719H62.0898H61.9805H60.668V65.3594ZM54.9805 50.9219C51.8086 50.9219 49.1836 48.2969 49.1836 45.125C49.1836 41.9531 51.8086 39.3281 54.9805 39.3281H56.5117V40.5313V51.0312H54.9805V50.9219Z" fill="#08B7F8"/>
</svg>
