<svg width="44" height="44" viewBox="0 0 44 44" fill="black" xmlns="http://www.w3.org/2000/svg">
<g clip-path="url(#clip0)">
<path fill-rule="evenodd" clip-rule="evenodd" d="M42.821 18.852C43.0982 18.8736 43.3626 18.984 43.5746 19.1694C43.8479 19.4106 44.0038 19.7571 43.9999 20.1189V26.7591C43.9999 26.9356 43.9629 27.112 43.8901 27.2745C42.7955 29.7232 38.3022 32.0475 34.4909 33.4172L33.8025 37.9197C33.7079 38.5417 33.1715 39 32.5405 39H26.8134C26.1824 39 25.646 38.5417 25.5515 37.921L25.1824 35.5003C22.8399 35.7084 20.615 35.6539 18.5739 35.3314L18.1793 37.9197C18.0848 38.5417 17.5483 39 16.9174 39H11.1902C10.5593 39 10.0228 38.5405 9.9283 37.9197L8.77112 30.3427C5.5231 27.0727 3.8116 23.2137 3.77967 19.262C1.63774 18.4369 0.392432 17.2424 0.0756767 15.6988C-0.513131 12.8224 2.51648 10.2328 2.86261 9.94589C3.40416 9.49906 4.20882 9.57395 4.66097 10.1147C5.10928 10.6529 5.0352 11.4514 4.49365 11.8995C3.77073 12.4999 2.35299 14.0968 2.58034 15.1974C2.68508 15.7014 3.18959 16.1787 4.01979 16.5938C4.8781 12.0023 7.96902 7.94785 12.3998 5.69211C14.5775 4.58519 17.2814 4 20.2152 4C24.7979 4 29.4075 5.39507 32.7602 7.76505C34.9507 6.40425 37.3583 5.75178 40.0494 5.83937C40.5092 5.8546 40.9231 6.11356 41.1376 6.51723C41.3522 6.9209 41.3292 7.40835 41.0827 7.79298L41.0825 7.79328C41.0553 7.83572 39.3728 10.4628 38.1285 13.6982C41.1249 18.0625 42.5988 18.7682 42.821 18.852ZM31.368 16.8984C31.368 17.9495 32.2263 18.8025 33.2839 18.8025C34.3414 18.8025 35.1998 17.9495 35.1998 16.8984C35.1998 15.8473 34.3414 14.9943 33.2839 14.9943C32.2263 14.9943 31.368 15.8473 31.368 16.8984ZM21.3913 12.2114C22.9348 12.3902 24.2391 12.9065 25.4348 13.6612L23.9783 15.9848C23.1087 15.4486 22.1739 15.0315 21.2826 14.8131V17.8318C24.587 18.646 26 19.8575 26 22.0818V22.1215C26 24.3458 24.1304 25.7757 21.3913 26.0339V28H19.1304V25.9942C17.2609 25.7757 15.4348 25.1005 14 24.1075L15.6957 21.8435C16.8696 22.6577 17.9565 23.2138 19.2391 23.4521V20.2944C16.1087 19.5199 14.5652 18.4474 14.5652 16.0841V16.0444C14.5652 13.8598 16.3913 12.41 19.1304 12.1519V11H21.3913V12.2114ZM22.8261 22.2804V22.2407C22.8261 21.5853 22.4565 21.1682 21.2826 20.771V23.5514C22.3043 23.4124 22.8261 22.9953 22.8261 22.2804ZM17.7391 15.8657V15.9054C17.7391 16.5409 18.0435 16.9381 19.2391 17.3353V14.6343C18.1739 14.7535 17.7391 15.2301 17.7391 15.8657Z" fill="#08B7F8"/>
</g>
<defs>
<clipPath id="clip0">
<rect width="44" height="44" fill="#121212"/>
</clipPath>
</defs>
</svg>
