<svg width="48" height="48" viewBox="0 0 48 48" fill="none" xmlns="http://www.w3.org/2000/svg">
<g filter="url(#filter0_d_66_68)">
<path fill-rule="evenodd" clip-rule="evenodd" d="M14.2074 27.8903C14.3967 27.6442 14.6895 27.5 15 27.5H33C33.3105 27.5 33.6033 27.6442 33.7926 27.8903L43.7926 40.8903C44.0249 41.1923 44.0654 41.6 43.8971 41.9418C43.7289 42.2835 43.381 42.5 43 42.5H5.00001C4.61904 42.5 4.27116 42.2835 4.10287 41.9418C3.93458 41.6 3.9751 41.1923 4.20738 40.8903L14.2074 27.8903ZM15.4924 29.5L7.03087 40.5H40.9691L32.5076 29.5H15.4924Z" fill="#FFB848"/>
<path fill-rule="evenodd" clip-rule="evenodd" d="M10.1499 33.5C10.1499 32.9477 10.5976 32.5 11.1499 32.5H36.8499C37.4022 32.5 37.8499 32.9477 37.8499 33.5C37.8499 34.0523 37.4022 34.5 36.8499 34.5H11.1499C10.5976 34.5 10.1499 34.0523 10.1499 33.5Z" fill="#FFB848"/>
<path fill-rule="evenodd" clip-rule="evenodd" d="M20.0667 28.141C20.2152 27.7548 20.5862 27.5 21 27.5H27C27.4138 27.5 27.7848 27.7548 27.9334 28.141L32.9334 41.141C33.0516 41.4485 33.0108 41.7946 32.8243 42.0661C32.6378 42.3377 32.3295 42.5 32 42.5H16C15.6705 42.5 15.3622 42.3377 15.1757 42.0661C14.9892 41.7946 14.9484 41.4485 15.0667 41.141L20.0667 28.141ZM21.6868 29.5L17.456 40.5H30.544L26.3132 29.5H21.6868Z" fill="#FFB848"/>
<path fill-rule="evenodd" clip-rule="evenodd" d="M24 15.5C19.5823 15.5 16 19.0823 16 23.5C16 24.0523 15.5523 24.5 15 24.5C14.4477 24.5 14 24.0523 14 23.5C14 17.9777 18.4777 13.5 24 13.5C29.5223 13.5 34 17.9777 34 23.5C34 24.0523 33.5523 24.5 33 24.5C32.4477 24.5 32 24.0523 32 23.5C32 19.0823 28.4177 15.5 24 15.5Z" fill="#FFB848"/>
<path fill-rule="evenodd" clip-rule="evenodd" d="M24 5.5C24.5523 5.5 25 5.94772 25 6.5V10.5C25 11.0523 24.5523 11.5 24 11.5C23.4477 11.5 23 11.0523 23 10.5V6.5C23 5.94772 23.4477 5.5 24 5.5Z" fill="#FFB848"/>
<path fill-rule="evenodd" clip-rule="evenodd" d="M36.728 10.7719C37.1185 11.1624 37.1185 11.7956 36.728 12.1861L33.899 15.0151C33.5085 15.4056 32.8753 15.4056 32.4848 15.0151C32.0943 14.6246 32.0943 13.9914 32.4848 13.6009L35.3138 10.7719C35.7043 10.3814 36.3375 10.3814 36.728 10.7719Z" fill="#FFB848"/>
<path fill-rule="evenodd" clip-rule="evenodd" d="M36 23.5C36 22.9477 36.4477 22.5 37 22.5H41C41.5523 22.5 42 22.9477 42 23.5C42 24.0523 41.5523 24.5 41 24.5H37C36.4477 24.5 36 24.0523 36 23.5Z" fill="#FFB848"/>
<path fill-rule="evenodd" clip-rule="evenodd" d="M11.2719 10.7719C11.6624 10.3814 12.2956 10.3814 12.6861 10.7719L15.5151 13.6009C15.9056 13.9914 15.9056 14.6246 15.5151 15.0151C15.1246 15.4056 14.4914 15.4056 14.1009 15.0151L11.2719 12.1861C10.8814 11.7956 10.8814 11.1624 11.2719 10.7719Z" fill="#FFB848"/>
<path fill-rule="evenodd" clip-rule="evenodd" d="M6 23.5C6 22.9477 6.44772 22.5 7 22.5H11C11.5523 22.5 12 22.9477 12 23.5C12 24.0523 11.5523 24.5 11 24.5H7C6.44772 24.5 6 24.0523 6 23.5Z" fill="#FFB848"/>
</g>
<defs>
<filter id="filter0_d_66_68" x="2" y="4.5" width="44" height="41" filterUnits="userSpaceOnUse" color-interpolation-filters="sRGB">
<feFlood flood-opacity="0" result="BackgroundImageFix"/>
<feColorMatrix in="SourceAlpha" type="matrix" values="0 0 0 0 0 0 0 0 0 0 0 0 0 0 0 0 0 0 127 0" result="hardAlpha"/>
<feOffset dy="1"/>
<feGaussianBlur stdDeviation="1"/>
<feComposite in2="hardAlpha" operator="out"/>
<feColorMatrix type="matrix" values="0 0 0 0 0 0 0 0 0 0 0 0 0 0 0 0 0 0 0.4 0"/>
<feBlend mode="normal" in2="BackgroundImageFix" result="effect1_dropShadow_66_68"/>
<feBlend mode="normal" in="SourceGraphic" in2="effect1_dropShadow_66_68" result="shape"/>
</filter>
</defs>
</svg>
