                 <svg className="mx-auto" width="40" height="41" viewBox="0 0 40 41" fill="none" xmlns="http://www.w3.org/2000/svg" focusable="false"><g clip-path="url(#bssoblnmydt0fmgxq72jge4)"><path fill-rule="evenodd" clip-rule="evenodd" d="M18.382 6.505c.663 0 1.2-.538 1.2-1.2V1.7a1.201 1.201 0 10-2.401 0v3.603c0 .663.537 1.201 1.2 1.201zM7.433 4.956l1.802 3.12c.181.315.463.518.787.585.309.064.613-.006.854-.145.24-.139.452-.367.552-.667a1.18 1.18 0 00-.113-.973l-1.801-3.12a1.18 1.18 0 00-.787-.585 1.222 1.222 0 00-.854.145c-.24.139-.453.367-.552.667a1.18 1.18 0 00.112.973zm10.949 5.152c-5.896 0-10.747 4.472-11.347 10.209H2.77a2.403 2.403 0 00-2.403 2.405v12.004A2.404 2.404 0 002.77 37.13h30.023a2.403 2.403 0 002.403-2.405v-.598h2.403A2.4 2.4 0 0040 31.723v-5.998a2.403 2.403 0 00-2.4-2.406h-2.404v-.597a2.404 2.404 0 00-2.403-2.405h-3.064c-.6-5.737-5.451-10.209-11.347-10.209zM3.728 14.451l-3.12-1.802a1.18 1.18 0 01-.584-.786c-.064-.31.005-.613.144-.854.14-.241.368-.453.668-.552a1.18 1.18 0 01.973.112l3.12 1.802c.315.181.518.463.584.786.064.31-.005.614-.144.854-.14.241-.368.453-.667.553a1.18 1.18 0 01-.974-.113zM27.25 3.755l-1.802 3.12a1.18 1.18 0 00-.112.974c.1.3.311.528.552.667.24.14.545.209.854.145a1.18 1.18 0 00.787-.584l1.801-3.12a1.18 1.18 0 00.113-.974c-.1-.3-.312-.528-.552-.667a1.222 1.222 0 00-.854-.145 1.18 1.18 0 00-.787.584zm3.984 8.616l3.12-1.802a1.18 1.18 0 01.973-.112c.3.1.529.311.668.552.139.24.208.544.144.854a1.18 1.18 0 01-.584.787l-3.12 1.801a1.18 1.18 0 01-.974.112c-.3-.099-.528-.31-.667-.552a1.222 1.222 0 01-.144-.854 1.18 1.18 0 01.584-.786zm-3.924 7.946a9.01 9.01 0 00-17.856 0H27.31zm10.288 5.406l-2.402-.002v6.005h2.402v-6.003zM2.77 22.719h30.024v12.007s-20.431-.31-30.024.002v-12.01z" fill="url(#upzsikygf0537gsaodot6)"></path></g><defs><linearGradient id="upzsikygf0537gsaodot6" x1="0" y1=".5" x2="36.489" y2="40.346" gradientUnits="userSpaceOnUse"><stop stop-color="#FFB848"></stop><stop offset="1" stop-color="#FFB848"></stop></linearGradient><clipPath id="bssoblnmydt0fmgxq72jge4"><path fill="#fff" transform="translate(0 .5)" d="M0 0h40v40H0z"></path></clipPath></defs></svg>
