 <svg width="96" height="16" viewBox="0 0 96 16" fill="none" xmlns="http://www.w3.org/2000/svg" focusable="false"><path fill-rule="evenodd" clip-rule="evenodd" d="M8 0L5.627 5.15 0 5.817l4.16 3.849-1.104 5.56L8 12.456l4.945 2.77-1.105-5.56L16 5.817l-5.627-.668L8 0zM28 0L25.627 5.15 20 5.817l4.16 3.849-1.104 5.56L28 12.456l4.945 2.77-1.105-5.56L36 5.817l-5.627-.668L28 0zM48 0L45.627 5.15 40 5.817l4.16 3.849-1.104 5.56L48 12.456l4.945 2.77-1.105-5.56L56 5.817l-5.627-.668L48 0zM68 0L65.627 5.15 60 5.817l4.16 3.849-1.104 5.56L68 12.456l4.945 2.77-1.105-5.56L76 5.817l-5.627-.668L68 0zM88 0L85.627 5.15 80 5.817l4.16 3.849-1.104 5.56L88 12.456l4.945 2.77-1.105-5.56L96 5.817l-5.627-.668L88 0z" fill="#FFD800"></path></svg>