<svg width="118" height="106" viewBox="0 0 118 106" fill="none" xmlns="http://www.w3.org/2000/svg">
<path d="M45 63.1714H59V84L73 50.8286H59V30L45 63.1714Z" fill="#08B7F8"/>
<path fill-rule="evenodd" clip-rule="evenodd" d="M102.851 85.4475C103.701 85.4475 104.163 84.4538 103.615 83.8034L89.7649 67.3559C89.3653 66.8814 88.6347 66.8814 88.2351 67.3559L74.3845 83.8034C73.8369 84.4538 74.2992 85.4475 75.1494 85.4475H80C80.5523 85.4475 81 85.8952 81 86.4475V99C81 99.5523 81.4477 100 82 100H96C96.5523 100 97 99.5523 97 99V86.4475C97 85.8952 97.4477 85.4475 98 85.4475H102.851Z" fill="#08B7F8"/>
<path fill-rule="evenodd" clip-rule="evenodd" d="M16.0575 52.0001L59.014 11.7284L77 28.2461V18.0001H85.5V36.0523L102.865 52.0001H91C89.3431 52.0001 88 53.3432 88 55.0001V64H92V56.0001H105.433C108.167 56.0001 109.476 52.6403 107.462 50.7905L89.5 34.2949V17.0001C89.5 15.3432 88.1568 14.0001 86.5 14.0001H76C74.3431 14.0001 73 15.3432 73 17.0001V19.1418L61.0362 8.15467C59.8799 7.09278 58.1005 7.10191 56.9552 8.17565L11.4769 50.8115C9.49286 52.6715 10.8091 56.0001 13.5287 56.0001H26V92.0001C26 95.3138 28.6863 98.0001 32 98.0001H78V94.0001H32C30.8954 94.0001 30 93.1047 30 92.0001V55.0001C30 53.3433 28.6568 52.0001 27 52.0001H16.0575Z" fill="#333333"/>
</svg>
