<svg width="40" height="40" viewBox="0 0 40 40" fill="none" xmlns="http://www.w3.org/2000/svg" focusable="false"><path fill-rule="evenodd" clip-rule="evenodd" d="M20 3.25c-9.25 0-16.75 7.5-16.75 16.75S10.75 36.75 20 36.75 36.75 29.25 36.75 20 29.25 3.25 20 3.25zM.75 20C.75 9.369 9.369.75 20 .75S39.25 9.369 39.25 20 30.631 39.25 20 39.25.75 30.631.75 20z" fill="url(#uppqup5je109n7s6xqbdma)"></path><path fill-rule="evenodd" clip-rule="evenodd" d="M29.384 14.616a1.25 1.25 0 010 1.768l-10 10a1.25 1.25 0 01-1.768 0l-5.5-5.5a1.25 1.25 0 011.768-1.768l4.616 4.616 9.116-9.116a1.25 1.25 0 011.768 0z" fill="url(#ioyz92fqj90pgamv6f4mxm)"></path><defs><linearGradient id="uppqup5je109n7s6xqbdma" x1=".75" y1=".75" x2="39.25" y2="39.25" gradientUnits="userSpaceOnUse"><stop stop-color="#08B7F8"></stop><stop offset="1" stop-color="#08B7F8"></stop></linearGradient><linearGradient id="ioyz92fqj90pgamv6f4mxm" x1=".75" y1=".75" x2="39.25" y2="39.25" gradientUnits="userSpaceOnUse"><stop stop-color="#08B7F8"></stop><stop offset="1" stop-color="#08B7F8"></stop></linearGradient></defs></svg>